<svg width="38" height="39" viewBox="0 0 38 39" fill="none" xmlns="http://www.w3.org/2000/svg">
<g clip-path="url(#clip0_736_2484)">
<path d="M33.6541 36.8604L31.9842 26.9893C31.8852 26.4697 31.6625 26.012 31.3162 25.6162C30.9698 25.2204 30.5369 24.9359 30.0174 24.7627L25.49 23.4268C25.4405 22.8577 25.3045 22.3197 25.0818 21.8125C24.8592 21.3053 24.5623 20.8415 24.1912 20.4209C23.8943 20.0993 23.5541 19.821 23.1707 19.5859C22.7872 19.3509 22.3852 19.1592 21.9646 19.0107C22.0388 18.9365 22.1131 18.8623 22.1873 18.7881C22.2615 18.7139 22.3234 18.6273 22.3728 18.5283C22.9171 17.8604 23.3377 17.1738 23.6346 16.4688C23.9314 15.7637 24.117 15.1514 24.1912 14.6318H24.5252C24.9952 14.6318 25.3911 14.471 25.7127 14.1494C26.0343 13.8278 26.1951 13.4443 26.1951 12.999V12.1455C26.1951 11.8486 26.1147 11.5703 25.9539 11.3105C25.7931 11.0508 25.589 10.8467 25.3416 10.6982V8.65723C25.3416 8.50879 25.2859 8.37891 25.1746 8.26758C25.0633 8.15625 24.9334 8.10059 24.7849 8.10059C24.6118 8.10059 24.4757 8.15625 24.3767 8.26758C24.2778 8.37891 24.2283 8.50879 24.2283 8.65723V10.958C24.1046 10.958 23.9809 10.9766 23.8572 11.0137C23.7335 11.0508 23.6098 11.0941 23.4861 11.1436C23.4614 11.1683 23.4428 11.1807 23.4304 11.1807C23.4181 11.1807 23.4119 11.1807 23.4119 11.1807C23.3624 11.2054 23.3253 11.224 23.3006 11.2363C23.2758 11.2487 23.2511 11.2673 23.2263 11.292V6.80176C23.2263 6.18327 23.0037 5.65137 22.5584 5.20605C22.1131 4.76074 21.5812 4.53809 20.9627 4.53809H19.4412C19.1691 4.53809 18.9093 4.58757 18.6619 4.68652C18.4145 4.78548 18.1918 4.90918 17.9939 5.05762L17.8455 5.20605C17.697 5.30501 17.5362 5.38542 17.3631 5.44727C17.1899 5.50911 17.0167 5.54004 16.8435 5.54004C16.6704 5.54004 16.4972 5.50911 16.324 5.44727C16.1508 5.38542 15.99 5.30501 15.8416 5.20605L15.6931 5.05762C15.4952 4.90918 15.2726 4.78548 15.0252 4.68652C14.7778 4.58757 14.518 4.53809 14.2459 4.53809H12.7244C12.1059 4.53809 11.574 4.76074 11.1287 5.20605C10.6834 5.65137 10.4607 6.18327 10.4607 6.80176V11.292C10.436 11.2673 10.4112 11.2487 10.3865 11.2363C10.3618 11.224 10.3247 11.2054 10.2752 11.1807C10.2752 11.1807 10.269 11.1807 10.2566 11.1807C10.2442 11.1807 10.2257 11.1683 10.201 11.1436C10.0773 11.0941 9.95356 11.0508 9.82986 11.0137C9.70616 10.9766 9.58247 10.958 9.45877 10.958V5.16895C9.45877 4.27832 9.78038 3.51139 10.4236 2.86816C11.0668 2.22493 11.8338 1.90332 12.7244 1.90332H20.9627C21.8533 1.90332 22.6202 2.22493 23.2635 2.86816C23.9067 3.51139 24.2283 4.27832 24.2283 5.16895V6.05957C24.2283 6.20801 24.2778 6.33789 24.3767 6.44922C24.4757 6.56055 24.6118 6.61621 24.7849 6.61621C24.9334 6.61621 25.0633 6.56055 25.1746 6.44922C25.2859 6.33789 25.3416 6.20801 25.3416 6.05957V5.16895C25.3416 3.95671 24.9086 2.92383 24.0428 2.07031C23.1769 1.2168 22.1502 0.790039 20.9627 0.790039H12.7244C11.5369 0.790039 10.5102 1.2168 9.64431 2.07031C8.77843 2.92383 8.34549 3.95671 8.34549 5.16895V10.6982C8.09809 10.8467 7.89399 11.0508 7.73318 11.3105C7.57237 11.5703 7.49197 11.8486 7.49197 12.1455V12.999C7.49197 13.4443 7.65278 13.8278 7.97439 14.1494C8.29601 14.471 8.69184 14.6318 9.16189 14.6318H9.49588C9.5701 15.1514 9.75564 15.7637 10.0525 16.4688C10.3494 17.1738 10.77 17.8604 11.3142 18.5283C11.3637 18.6273 11.4256 18.7139 11.4998 18.7881C11.574 18.8623 11.6359 18.9365 11.6853 19.0107C10.7452 19.3324 9.94737 19.889 9.29177 20.6807C8.63618 21.4723 8.27127 22.3877 8.19705 23.4268L3.6697 24.7627C3.15017 24.9359 2.71723 25.2204 2.37088 25.6162C2.02452 26.012 1.80187 26.4697 1.70291 26.9893L0.99783 30.9971C0.97309 31.1455 1.0102 31.2816 1.10916 31.4053C1.20812 31.529 1.33181 31.6032 1.48025 31.6279C1.62869 31.6527 1.76476 31.6217 1.88845 31.5352C2.01215 31.4486 2.08637 31.3311 2.11111 31.1826L2.77908 27.1748C2.8533 26.8532 2.99555 26.5749 3.20584 26.3398C3.41612 26.1048 3.6697 25.9378 3.96658 25.8389L8.15994 24.5771V25.6904C7.68989 25.7646 7.26313 25.9564 6.87967 26.2656C6.4962 26.5749 6.21788 26.9645 6.0447 27.4346C6.01997 27.5583 5.98904 27.682 5.95193 27.8057C5.91482 27.9294 5.89627 28.0531 5.89627 28.1768L5.48806 33.4092C5.46332 33.5824 5.48806 33.7679 5.56228 33.9658C5.6365 34.1637 5.73546 34.3245 5.85916 34.4482C5.98286 34.5967 6.13748 34.7142 6.32303 34.8008C6.50857 34.8874 6.7003 34.9307 6.89822 34.9307H7.6033C7.75174 34.9307 7.88162 34.875 7.99295 34.7637C8.10427 34.6523 8.15994 34.5225 8.15994 34.374C8.15994 34.2008 8.10427 34.0648 7.99295 33.9658C7.88162 33.8669 7.75174 33.8174 7.6033 33.8174H6.89822C6.84874 33.8174 6.80545 33.805 6.76834 33.7803C6.73123 33.7555 6.7003 33.7308 6.67556 33.7061C6.65082 33.6813 6.63227 33.6504 6.6199 33.6133C6.60753 33.5762 6.60135 33.5329 6.60135 33.4834L7.00955 28.2881C7.00955 28.1891 7.01573 28.1025 7.0281 28.0283C7.04047 27.9541 7.0714 27.8799 7.12088 27.8057C7.21983 27.484 7.41775 27.2305 7.71463 27.0449C8.0115 26.8594 8.33312 26.7542 8.67947 26.7295H8.75369C8.77843 26.7295 8.7908 26.7295 8.7908 26.7295C9.13715 26.7295 9.4464 26.8223 9.71853 27.0078C9.99067 27.1934 10.201 27.4346 10.3494 27.7314C10.3741 27.8304 10.3989 27.9232 10.4236 28.0098C10.4484 28.0964 10.4607 28.1891 10.4607 28.2881L10.8689 33.4834C10.8689 33.5329 10.8627 33.5762 10.8504 33.6133C10.838 33.6504 10.8194 33.6813 10.7947 33.7061C10.77 33.7308 10.739 33.7555 10.7019 33.7803C10.6648 33.805 10.6215 33.8174 10.572 33.8174H9.86697C9.71853 33.8174 9.58865 33.8669 9.47732 33.9658C9.36599 34.0648 9.31033 34.2008 9.31033 34.374C9.31033 34.5225 9.36599 34.6523 9.47732 34.7637C9.58865 34.875 9.71853 34.9307 9.86697 34.9307H10.572C10.77 34.9307 10.9617 34.8874 11.1472 34.8008C11.3328 34.7142 11.4874 34.5967 11.6111 34.4482C11.7348 34.3245 11.8338 34.1637 11.908 33.9658C11.9822 33.7679 12.0069 33.5824 11.9822 33.4092L11.574 28.1768C11.574 28.0283 11.5554 27.8799 11.5183 27.7314C11.4812 27.583 11.4256 27.4469 11.3513 27.3232C11.1782 26.8779 10.906 26.513 10.5349 26.2285C10.1638 25.944 9.74327 25.7646 9.27322 25.6904V24.2432L11.2029 23.6494C11.2771 23.8473 11.4132 24.1628 11.6111 24.5957C11.809 25.0286 12.0688 25.6781 12.3904 26.5439C12.7368 27.4098 13.1202 28.3685 13.5408 29.4199C13.9614 30.4714 14.3696 31.5413 14.7654 32.6299C14.7654 32.6299 14.7654 32.6361 14.7654 32.6484C14.7654 32.6608 14.7778 32.667 14.8025 32.667C15.0747 33.3844 15.3406 34.0895 15.6004 34.7822C15.8601 35.4749 16.1013 36.1182 16.324 36.7119C16.3735 36.8109 16.4415 36.8975 16.5281 36.9717C16.6147 37.0459 16.7198 37.083 16.8435 37.083C16.9672 37.083 17.0724 37.0459 17.159 36.9717C17.2456 36.8975 17.3136 36.8109 17.3631 36.7119C17.5857 36.1182 17.8269 35.4749 18.0867 34.7822C18.3465 34.0895 18.6124 33.3844 18.8845 32.667C18.9093 32.667 18.9217 32.6608 18.9217 32.6484C18.9217 32.6361 18.9217 32.6299 18.9217 32.6299C19.3175 31.5413 19.7257 30.4714 20.1463 29.4199C20.5668 28.3685 20.9503 27.4098 21.2967 26.5439C21.6183 25.6781 21.878 25.0286 22.076 24.5957C22.2739 24.1628 22.4099 23.8473 22.4842 23.6494L24.4138 24.2432V27.5459C23.7459 27.6696 23.1892 27.9912 22.7439 28.5107C22.2986 29.0303 22.076 29.6488 22.076 30.3662C22.076 31.1579 22.3543 31.832 22.9109 32.3887C23.4676 32.9453 24.1417 33.2236 24.9334 33.2236C25.725 33.2236 26.4054 32.9453 26.9744 32.3887C27.5434 31.832 27.8279 31.1579 27.8279 30.3662C27.8279 29.6735 27.6053 29.0612 27.1599 28.5293C26.7146 27.9974 26.1704 27.6696 25.5271 27.5459V24.5771L29.7205 25.8389C30.0174 25.9378 30.2709 26.1048 30.4812 26.3398C30.6915 26.5749 30.8338 26.8532 30.908 27.1748L32.5779 37.0459C32.5779 37.1201 32.5717 37.1943 32.5594 37.2686C32.547 37.3428 32.5161 37.417 32.4666 37.4912C32.3924 37.5407 32.3243 37.584 32.2625 37.6211C32.2006 37.6582 32.1202 37.6768 32.0213 37.6768H1.6658C1.56684 37.6768 1.48644 37.6582 1.42459 37.6211C1.36274 37.584 1.2947 37.5407 1.22049 37.4912C1.17101 37.417 1.14008 37.3428 1.12771 37.2686C1.11534 37.1943 1.10916 37.1201 1.10916 37.0459L1.6658 33.7803C1.69054 33.6318 1.65961 33.4958 1.57303 33.3721C1.48644 33.2484 1.36892 33.1742 1.22049 33.1494C1.07205 33.1247 0.935981 33.1556 0.812283 33.2422C0.688585 33.3288 0.601997 33.4463 0.552517 33.5947L0.0329861 36.8604C-0.0164931 37.083 -0.0103082 37.3118 0.0515408 37.5469C0.11339 37.7819 0.218533 37.9984 0.366971 38.1963C0.540148 38.3942 0.738064 38.5426 0.96072 38.6416C1.18338 38.7406 1.4184 38.79 1.6658 38.79H32.0213C32.2687 38.79 32.5037 38.7406 32.7263 38.6416C32.949 38.5426 33.1469 38.3942 33.3201 38.1963C33.4685 37.9984 33.5737 37.7819 33.6355 37.5469C33.6974 37.3118 33.7036 37.083 33.6541 36.8604ZM24.2283 12.0713C24.3767 12.0465 24.5004 12.028 24.5994 12.0156C24.6984 12.0033 24.7478 11.9971 24.7478 11.9971C24.7973 11.9971 24.8468 11.9909 24.8963 11.9785C24.9457 11.9661 24.9952 11.9476 25.0447 11.9229C25.0447 11.9723 25.0509 12.0094 25.0633 12.0342C25.0756 12.0589 25.0818 12.096 25.0818 12.1455V12.999C25.0818 13.1475 25.0262 13.2712 24.9148 13.3701C24.8035 13.4691 24.6736 13.5186 24.5252 13.5186H24.2283V12.0713ZM9.45877 13.5186H9.16189C9.01345 13.5186 8.88357 13.4691 8.77224 13.3701C8.66092 13.2712 8.60525 13.1475 8.60525 12.999V12.1455C8.60525 12.096 8.61144 12.0589 8.62381 12.0342C8.63618 12.0094 8.64236 11.9723 8.64236 11.9229C8.69184 11.9476 8.74132 11.9661 8.7908 11.9785C8.84028 11.9909 8.88976 11.9971 8.93924 11.9971C8.93924 11.9971 8.98872 12.0033 9.08767 12.0156C9.18663 12.028 9.31033 12.0465 9.45877 12.0713V13.5186ZM10.572 14.1494V12.665C10.671 12.6898 10.7638 12.7021 10.8504 12.7021C10.937 12.7021 11.0174 12.6898 11.0916 12.665C11.24 12.5908 11.3575 12.4919 11.4441 12.3682C11.5307 12.2445 11.574 12.096 11.574 11.9229V6.80176C11.574 6.48014 11.6853 6.20801 11.908 5.98535C12.1306 5.7627 12.4028 5.65137 12.7244 5.65137H14.2459C14.3943 5.65137 14.5304 5.67611 14.6541 5.72559C14.7778 5.77507 14.8891 5.84929 14.9881 5.94824L15.1736 6.05957C15.3963 6.25749 15.656 6.40593 15.9529 6.50488C16.2498 6.60384 16.5467 6.65332 16.8435 6.65332C17.1404 6.65332 17.4373 6.60384 17.7342 6.50488C18.031 6.40593 18.2908 6.25749 18.5135 6.05957L18.699 5.94824C18.798 5.84929 18.9093 5.77507 19.033 5.72559C19.1567 5.67611 19.2928 5.65137 19.4412 5.65137H20.9627C21.2843 5.65137 21.5564 5.7627 21.7791 5.98535C22.0017 6.20801 22.1131 6.48014 22.1131 6.80176V11.9229C22.1131 12.096 22.1564 12.2445 22.2429 12.3682C22.3295 12.4919 22.4471 12.5908 22.5955 12.665C22.645 12.6898 22.6944 12.7021 22.7439 12.7021C22.7934 12.7021 22.8429 12.7021 22.8924 12.7021C22.9171 12.7021 22.948 12.7021 22.9851 12.7021C23.0222 12.7021 23.0655 12.6898 23.115 12.665V14.1494C23.115 14.5452 22.979 15.0957 22.7068 15.8008C22.4347 16.5059 22.0388 17.1924 21.5193 17.8604C21.3461 18.083 21.1482 18.3057 20.9256 18.5283C20.7029 18.751 20.4555 18.9736 20.1834 19.1963C20.1586 19.1963 20.1463 19.1963 20.1463 19.1963C20.1463 19.1963 20.1339 19.2087 20.1092 19.2334C19.6886 19.5303 19.2062 19.7839 18.6619 19.9941C18.1176 20.2044 17.5115 20.3096 16.8435 20.3096C16.1756 20.3096 15.5694 20.2044 15.0252 19.9941C14.4809 19.7839 13.9985 19.5303 13.5779 19.2334C13.5532 19.2087 13.5408 19.1963 13.5408 19.1963C13.5408 19.1963 13.5284 19.1963 13.5037 19.1963C13.2316 18.9736 12.9842 18.751 12.7615 18.5283C12.5388 18.3057 12.3409 18.083 12.1678 17.8604C11.6482 17.1924 11.2524 16.5059 10.9803 15.8008C10.7081 15.0957 10.572 14.5452 10.572 14.1494ZM20.4803 23.1299L16.8435 25.876L13.2068 23.1299C13.38 22.9072 13.5161 22.6536 13.615 22.3691C13.714 22.0846 13.7635 21.8187 13.7635 21.5713V20.6807C14.184 20.9033 14.6541 21.0827 15.1736 21.2188C15.6931 21.3548 16.2498 21.4229 16.8435 21.4229C17.4373 21.4229 17.9939 21.3548 18.5135 21.2188C19.033 21.0827 19.503 20.9033 19.9236 20.6807V21.5713C19.9236 21.8187 19.9731 22.0846 20.0721 22.3691C20.171 22.6536 20.3071 22.9072 20.4803 23.1299ZM12.2791 22.499C12.1306 22.4495 11.976 22.4186 11.8152 22.4062C11.6544 22.3939 11.4874 22.4124 11.3142 22.4619C11.3142 22.4619 11.3019 22.4619 11.2771 22.4619L9.38455 23.0557C9.53299 22.264 9.90408 21.5775 10.4978 20.9961C11.0916 20.4147 11.809 20.0622 12.6502 19.9385V21.5713C12.6502 21.7445 12.6131 21.9115 12.5388 22.0723C12.4646 22.2331 12.378 22.3753 12.2791 22.499ZM13.7635 26.9893C13.7635 26.9398 13.7573 26.8965 13.7449 26.8594C13.7325 26.8223 13.714 26.7913 13.6892 26.7666C13.6892 26.7666 13.6892 26.7604 13.6892 26.748C13.6892 26.7357 13.6892 26.7295 13.6892 26.7295C13.6645 26.68 13.6459 26.6429 13.6336 26.6182C13.6212 26.5934 13.615 26.5563 13.615 26.5068C13.5903 26.5068 13.5779 26.5068 13.5779 26.5068C13.5532 26.4079 13.5222 26.3089 13.4851 26.21C13.448 26.111 13.4047 26.012 13.3553 25.9131C13.3553 25.9131 13.3553 25.9069 13.3553 25.8945C13.3553 25.8822 13.3553 25.876 13.3553 25.876C13.3305 25.8512 13.312 25.8265 13.2996 25.8018C13.2872 25.777 13.281 25.7399 13.281 25.6904C13.281 25.6904 13.2748 25.6842 13.2625 25.6719C13.2501 25.6595 13.2439 25.6533 13.2439 25.6533C13.2439 25.6286 13.2377 25.6038 13.2254 25.5791C13.213 25.5544 13.1944 25.5296 13.1697 25.5049C13.1697 25.5049 13.1697 25.4987 13.1697 25.4863C13.1697 25.474 13.1697 25.4678 13.1697 25.4678C13.145 25.4183 13.1264 25.3688 13.114 25.3193C13.1017 25.2699 13.0831 25.2204 13.0584 25.1709C13.0584 25.1709 13.0522 25.1647 13.0398 25.1523C13.0275 25.14 13.0213 25.1338 13.0213 25.1338C13.0213 25.109 13.0151 25.0905 13.0027 25.0781C12.9903 25.0658 12.9842 25.0472 12.9842 25.0225C12.9842 24.9977 12.978 24.9792 12.9656 24.9668C12.9532 24.9544 12.947 24.9359 12.947 24.9111C12.947 24.9111 12.947 24.9049 12.947 24.8926C12.947 24.8802 12.947 24.874 12.947 24.874C12.9223 24.874 12.9099 24.8678 12.9099 24.8555C12.9099 24.8431 12.9099 24.8369 12.9099 24.8369C12.8852 24.7627 12.8543 24.6885 12.8172 24.6143C12.7801 24.54 12.7491 24.4658 12.7244 24.3916C12.7244 24.3669 12.712 24.3359 12.6873 24.2988C12.6625 24.2617 12.6502 24.2184 12.6502 24.1689C12.6502 24.1689 12.644 24.1566 12.6316 24.1318C12.6192 24.1071 12.6131 24.0947 12.6131 24.0947L15.7303 26.4326L14.4314 26.9893L13.8748 27.2119C13.85 27.1624 13.8315 27.1191 13.8191 27.082C13.8067 27.0449 13.7882 27.014 13.7635 26.9893ZM15.0994 30.4033C15.0499 30.2549 15.0004 30.1064 14.951 29.958C14.9015 29.8096 14.8396 29.6611 14.7654 29.5127C14.6912 29.29 14.6108 29.0736 14.5242 28.8633C14.4376 28.653 14.3572 28.4489 14.283 28.251L14.4685 28.1768L15.322 29.1416L15.0994 30.4033ZM16.8435 34.8936C16.8435 34.8936 16.8373 34.8874 16.825 34.875C16.8126 34.8626 16.8064 34.8441 16.8064 34.8193C16.6827 34.4977 16.5405 34.1266 16.3797 33.7061C16.2189 33.2855 16.0519 32.8402 15.8787 32.3701L16.3982 29.5498H17.2888L17.8084 32.3701C17.6352 32.8649 17.462 33.3288 17.2888 33.7617C17.1157 34.1947 16.9672 34.5719 16.8435 34.8936ZM17.5115 28.4365H16.1756L15.5447 27.6943L16.8435 27.1748L18.1424 27.6943L17.5115 28.4365ZM18.9217 29.5127C18.8474 29.6611 18.7856 29.8096 18.7361 29.958C18.6866 30.1064 18.6372 30.2549 18.5877 30.4033L18.365 29.1416L19.2185 28.1768L19.4041 28.251C19.3299 28.4489 19.2495 28.653 19.1629 28.8633C19.0763 29.0736 18.9959 29.29 18.9217 29.5127ZM21.0369 24.1689C21.0369 24.2184 21.0245 24.2555 20.9998 24.2803C20.975 24.305 20.9627 24.3421 20.9627 24.3916C20.9627 24.3916 20.9627 24.404 20.9627 24.4287C20.9379 24.4535 20.9194 24.4844 20.907 24.5215C20.8946 24.5586 20.8761 24.5895 20.8513 24.6143C20.8513 24.6143 20.8513 24.6204 20.8513 24.6328C20.8513 24.6452 20.8513 24.6514 20.8513 24.6514C20.8266 24.6761 20.8081 24.707 20.7957 24.7441C20.7833 24.7812 20.7771 24.8122 20.7771 24.8369C20.7771 24.8369 20.7771 24.8431 20.7771 24.8555C20.7771 24.8678 20.7648 24.874 20.74 24.874C20.74 24.874 20.74 24.8802 20.74 24.8926C20.74 24.9049 20.74 24.9111 20.74 24.9111C20.74 24.9359 20.7338 24.9544 20.7215 24.9668C20.7091 24.9792 20.7029 24.9977 20.7029 25.0225C20.7029 25.0225 20.6967 25.0348 20.6844 25.0596C20.672 25.0843 20.6658 25.109 20.6658 25.1338C20.6658 25.1338 20.6596 25.1338 20.6472 25.1338C20.6349 25.1338 20.6287 25.1462 20.6287 25.1709C20.604 25.2204 20.5854 25.2699 20.573 25.3193C20.5607 25.3688 20.5421 25.4183 20.5174 25.4678C20.5174 25.4678 20.5174 25.4801 20.5174 25.5049C20.4926 25.5296 20.4741 25.5544 20.4617 25.5791C20.4493 25.6038 20.4431 25.6286 20.4431 25.6533C20.4431 25.6533 20.437 25.6595 20.4246 25.6719C20.4122 25.6842 20.406 25.7028 20.406 25.7275C20.406 25.7523 20.3998 25.777 20.3875 25.8018C20.3751 25.8265 20.3689 25.8512 20.3689 25.876C20.3442 25.876 20.3318 25.8822 20.3318 25.8945C20.3318 25.9069 20.3318 25.9131 20.3318 25.9131C20.2823 26.012 20.239 26.111 20.2019 26.21C20.1648 26.3089 20.1339 26.4079 20.1092 26.5068C20.1092 26.5068 20.0968 26.5068 20.0721 26.5068C20.0721 26.5563 20.0659 26.5934 20.0535 26.6182C20.0411 26.6429 20.0226 26.68 19.9978 26.7295C19.9978 26.7295 19.9978 26.7357 19.9978 26.748C19.9978 26.7604 19.9978 26.7666 19.9978 26.7666C19.9731 26.7913 19.9545 26.8223 19.9422 26.8594C19.9298 26.8965 19.9236 26.9398 19.9236 26.9893C19.8989 27.014 19.8803 27.0449 19.8679 27.082C19.8556 27.1191 19.837 27.1624 19.8123 27.2119L19.2556 26.9893L17.9568 26.4326L21.074 24.0947C21.074 24.0947 21.0678 24.1071 21.0554 24.1318C21.0431 24.1566 21.0369 24.1689 21.0369 24.1689ZM22.4099 22.4619C22.2368 22.4124 22.0698 22.3939 21.909 22.4062C21.7482 22.4186 21.5812 22.4495 21.408 22.499C21.309 22.3753 21.2224 22.2331 21.1482 22.0723C21.074 21.9115 21.0369 21.7445 21.0369 21.5713V19.9385C21.878 20.0622 22.5955 20.4085 23.1892 20.9775C23.783 21.5465 24.1541 22.2393 24.3025 23.0557L22.4099 22.4619ZM26.7146 30.3662C26.7146 30.8363 26.5415 31.2445 26.1951 31.5908C25.8487 31.9372 25.4282 32.1104 24.9334 32.1104C24.4633 32.1104 24.0551 31.9372 23.7088 31.5908C23.3624 31.2445 23.1892 30.8363 23.1892 30.3662C23.1892 29.8714 23.3624 29.4508 23.7088 29.1045C24.0551 28.7581 24.4633 28.585 24.9334 28.585C25.4282 28.585 25.8487 28.7581 26.1951 29.1045C26.5415 29.4508 26.7146 29.8714 26.7146 30.3662Z" fill="#964734"/>
</g>
<defs>
<clipPath id="clip0_736_2484">
<rect width="38" height="38" fill="white" transform="matrix(1 0 0 -1 0 38.79)"/>
</clipPath>
</defs>
</svg>
