<svg width="23" height="23" viewBox="0 0 23 23" fill="none" xmlns="http://www.w3.org/2000/svg">
<g clip-path="url(#clip0_736_2166)">
<path d="M18.2125 14.4436C17.9764 14.2075 17.7219 14.0268 17.449 13.9014C17.1761 13.776 16.8921 13.7133 16.5971 13.7133C16.302 13.7133 16.018 13.776 15.7451 13.9014C15.4722 14.0268 15.2103 14.2075 14.9595 14.4436L13.4547 15.9483C13.3957 15.9188 13.333 15.8893 13.2667 15.8598C13.2003 15.8303 13.1376 15.7934 13.0786 15.7492C13.0048 15.7197 12.9273 15.6828 12.8462 15.6385C12.7651 15.5943 12.6876 15.55 12.6138 15.5058C11.9057 15.0632 11.2271 14.5432 10.578 13.9457C9.92887 13.3482 9.29451 12.6733 8.6749 11.9209C8.37985 11.5373 8.12906 11.1833 7.92252 10.8587C7.71598 10.5341 7.53895 10.2096 7.39143 9.88503C7.58321 9.70799 7.77131 9.52728 7.95571 9.34287C8.14012 9.15846 8.32084 8.97774 8.49787 8.80071C8.55688 8.72695 8.62327 8.65687 8.69703 8.59048C8.7708 8.5241 8.83718 8.45402 8.89619 8.38026C9.39778 7.87867 9.64858 7.32914 9.64858 6.73166C9.64858 6.13418 9.39778 5.58464 8.89619 5.08305L7.59059 3.77745C7.51682 3.70369 7.44306 3.62623 7.3693 3.5451C7.29554 3.46395 7.22177 3.3865 7.14801 3.31274C7.00048 3.16521 6.85296 3.01769 6.70543 2.87016C6.55791 2.72264 6.41038 2.57511 6.26285 2.42759C6.02681 2.19154 5.77233 2.01451 5.49941 1.89649C5.22648 1.77847 4.9425 1.71946 4.64744 1.71946C4.35239 1.71946 4.0684 1.77847 3.79548 1.89649C3.52256 2.01451 3.26807 2.19154 3.03203 2.42759C3.03203 2.42759 3.02466 2.42759 3.0099 2.42759L1.39449 4.08725C1.08469 4.38231 0.844959 4.71793 0.675304 5.09412C0.505649 5.47031 0.398693 5.87232 0.354435 6.30014C0.295425 6.99352 0.343371 7.65001 0.498273 8.26962C0.653175 8.88923 0.811766 9.41294 0.974045 9.84077C1.35761 10.8882 1.84814 11.9098 2.44562 12.9056C3.0431 13.9014 3.76966 14.9157 4.62531 15.9483C5.15641 16.5827 5.70963 17.1728 6.28498 17.7187C6.86033 18.2793 7.4615 18.8067 8.08849 19.3009C8.71547 19.7951 9.3609 20.2487 10.0248 20.6618C10.7034 21.0896 11.4041 21.4732 12.127 21.8125C12.6729 22.0781 13.3035 22.3399 14.019 22.5981C14.7345 22.8563 15.5054 23.0148 16.3315 23.0739C16.3758 23.0739 16.4237 23.0739 16.4753 23.0739C16.527 23.0739 16.5823 23.0739 16.6413 23.0739C17.1872 23.0739 17.6924 22.9743 18.1571 22.7751C18.6218 22.576 19.0312 22.2772 19.3853 21.8789C19.4 21.8789 19.4074 21.8789 19.4074 21.8789C19.4074 21.8789 19.4074 21.8715 19.4074 21.8568C19.5402 21.7092 19.6767 21.5654 19.8168 21.4252C19.957 21.2851 20.1008 21.1413 20.2483 20.9937C20.3516 20.9052 20.4549 20.8093 20.5581 20.7061C20.6614 20.6028 20.7647 20.4921 20.8679 20.3741C21.104 20.1381 21.2847 19.8799 21.4101 19.5996C21.5355 19.3193 21.5982 19.0316 21.5982 18.7366C21.5982 18.4415 21.5355 18.1539 21.4101 17.8736C21.2847 17.5933 21.0966 17.3277 20.8458 17.0769L18.2125 14.4436ZM19.9385 19.489C19.8352 19.5922 19.7357 19.6881 19.6398 19.7766C19.5439 19.8652 19.4443 19.9611 19.341 20.0643C19.1935 20.2118 19.0386 20.3668 18.8763 20.529C18.7141 20.6913 18.5591 20.8536 18.4116 21.0159C18.1756 21.2814 17.91 21.4769 17.615 21.6023C17.3199 21.7277 16.988 21.7904 16.6192 21.7904C16.5897 21.7904 16.5565 21.7904 16.5196 21.7904C16.4827 21.7904 16.4422 21.7904 16.3979 21.7904C15.6898 21.7314 15.0148 21.5875 14.3731 21.3589C13.7314 21.1302 13.1671 20.8978 12.6802 20.6618C12.0016 20.3372 11.3451 19.9758 10.7108 19.5775C10.0764 19.1792 9.46417 18.7513 8.87406 18.294C8.28396 17.8367 7.71598 17.3425 7.17014 16.8114C6.62429 16.2803 6.10795 15.7197 5.62112 15.1296C4.80972 14.1412 4.12373 13.1822 3.56313 12.2528C3.00253 11.3234 2.53782 10.3719 2.16901 9.39819C1.94772 8.80809 1.7965 8.26962 1.71536 7.78278C1.63422 7.29594 1.60841 6.83861 1.63791 6.41079C1.66742 6.13049 1.7338 5.87232 1.83707 5.63628C1.94034 5.40023 2.09524 5.18632 2.30178 4.99454L3.91719 3.357C4.03521 3.23898 4.15692 3.15415 4.28232 3.10252C4.40771 3.05088 4.52942 3.02506 4.64744 3.02506C4.79497 3.02506 4.93143 3.06195 5.05683 3.13571C5.18223 3.20947 5.28181 3.28324 5.35557 3.357C5.50309 3.50452 5.64693 3.64836 5.78708 3.78851C5.92723 3.92866 6.07107 4.0725 6.2186 4.22003C6.29236 4.29379 6.36981 4.37124 6.45095 4.45238C6.53209 4.53352 6.60954 4.61097 6.6833 4.68473L7.98891 5.99034C8.2397 6.24113 8.3651 6.48824 8.3651 6.73166C8.3651 6.97507 8.2397 7.22218 7.98891 7.47297C7.91514 7.54674 7.84507 7.61681 7.77868 7.6832C7.7123 7.74959 7.64222 7.81966 7.56846 7.89342C7.37667 8.09996 7.1812 8.29912 6.98204 8.4909C6.78288 8.68269 6.58003 8.8671 6.3735 9.04413C6.3735 9.05888 6.36981 9.06626 6.36243 9.06626C6.35506 9.06626 6.35137 9.06626 6.35137 9.06626C6.14483 9.27279 6.04156 9.47195 6.04156 9.66374C6.04156 9.85552 6.06369 10.0178 6.10795 10.1506C6.10795 10.1653 6.10795 10.1764 6.10795 10.1838C6.10795 10.1911 6.11533 10.1948 6.13008 10.1948C6.29236 10.6079 6.4989 11.0173 6.74969 11.423C7.00048 11.8287 7.30291 12.2602 7.65697 12.7175H7.6791C8.32822 13.5289 9.00684 14.2555 9.71496 14.8972C10.4231 15.539 11.1607 16.1032 11.9279 16.5901C12.0164 16.6491 12.1123 16.7044 12.2155 16.7561C12.3188 16.8077 12.4147 16.8556 12.5032 16.8999C12.5917 16.9441 12.6765 16.9884 12.7577 17.0327C12.8388 17.0769 12.9163 17.1212 12.99 17.1654C12.99 17.1654 12.9974 17.1691 13.0122 17.1765C13.0269 17.1839 13.0343 17.1876 13.0343 17.1876C13.1228 17.2318 13.204 17.265 13.2777 17.2871C13.3515 17.3093 13.4326 17.3203 13.5211 17.3203C13.7129 17.3203 13.8715 17.2761 13.9969 17.1876C14.1223 17.099 14.1998 17.0327 14.2293 16.9884L15.8668 15.3509C15.9553 15.2623 16.0623 15.1812 16.1877 15.1074C16.3131 15.0337 16.4495 14.9968 16.5971 14.9968C16.7446 14.9968 16.8774 15.0337 16.9954 15.1074C17.1134 15.1812 17.2093 15.255 17.283 15.3287C17.283 15.3435 17.283 15.3509 17.283 15.3509C17.283 15.3509 17.2904 15.3509 17.3052 15.3509L19.9385 17.9842C20.1746 18.235 20.2926 18.4858 20.2926 18.7366C20.2926 18.9874 20.1746 19.2382 19.9385 19.489ZM12.5475 5.79118C13.1818 5.9092 13.7793 6.11205 14.3399 6.39972C14.9005 6.6874 15.4095 7.0599 15.8668 7.51723C16.3094 7.97456 16.6782 8.48353 16.9732 9.04413C17.2683 9.60473 17.4675 10.1948 17.5707 10.8144C17.6002 10.9767 17.674 11.1058 17.792 11.2017C17.91 11.2976 18.0502 11.3455 18.2125 11.3455C18.2272 11.3455 18.242 11.3455 18.2567 11.3455C18.2715 11.3455 18.2936 11.3455 18.3231 11.3455C18.5001 11.316 18.6403 11.2275 18.7436 11.08C18.8468 10.9325 18.8837 10.7702 18.8542 10.5932C18.7214 9.84077 18.478 9.12527 18.1239 8.44665C17.7699 7.76803 17.3199 7.15579 16.7741 6.60995C16.2282 6.0641 15.616 5.61415 14.9374 5.26008C14.2588 4.90602 13.5433 4.6626 12.7909 4.52983C12.6138 4.50033 12.4516 4.53721 12.304 4.64048C12.1565 4.74374 12.068 4.88389 12.0385 5.06092C12.009 5.2232 12.0422 5.37811 12.1381 5.52563C12.234 5.67316 12.3704 5.76167 12.5475 5.79118ZM22.948 10.4161C22.8448 9.78176 22.6899 9.16952 22.4833 8.57942C22.2916 7.98932 22.0518 7.41765 21.7642 6.86443C21.4765 6.31121 21.1482 5.77643 20.7794 5.26008C20.3958 4.7585 19.9828 4.27904 19.5402 3.82171C19.0829 3.37913 18.6034 2.97343 18.1018 2.60462C17.5855 2.22105 17.0507 1.88911 16.4975 1.60882C15.9443 1.32852 15.3726 1.0851 14.7825 0.878561C14.1924 0.686777 13.5875 0.531876 12.9679 0.413855C12.7909 0.38435 12.6286 0.42123 12.4811 0.5245C12.3335 0.627768 12.245 0.767918 12.2155 0.944948C12.186 1.12198 12.2229 1.28426 12.3262 1.43178C12.4294 1.57931 12.5696 1.66783 12.7466 1.69733C13.8678 1.88911 14.9263 2.24318 15.9221 2.75952C16.9179 3.27586 17.8215 3.93973 18.6329 4.75112C19.4443 5.54776 20.1082 6.44767 20.6245 7.45085C21.1409 8.45402 21.4875 9.50883 21.6646 10.6153C21.6941 10.7776 21.7715 10.9066 21.8969 11.0025C22.0223 11.0984 22.1588 11.1464 22.3063 11.1464C22.3358 11.1464 22.3579 11.1464 22.3727 11.1464C22.3874 11.1464 22.4022 11.1464 22.417 11.1464C22.594 11.1169 22.7341 11.0284 22.8374 10.8808C22.9407 10.7333 22.9776 10.5784 22.948 10.4161Z" fill="#F9F9FE"/>
</g>
<defs>
<clipPath id="clip0_736_2166">
<rect width="22.66" height="22.66" fill="white" transform="matrix(1 0 0 -1 0.330017 22.7863)"/>
</clipPath>
</defs>
</svg>
