<svg width="23" height="23" viewBox="0 0 23 23" fill="none" xmlns="http://www.w3.org/2000/svg">
<g clip-path="url(#clip0_736_2158)">
<path d="M22.7579 6.0125C22.7579 5.68794 22.6472 5.41502 22.4259 5.19373C22.2046 4.97244 21.9317 4.8618 21.6072 4.8618L1.2707 4.88393C1.12317 4.88393 0.979334 4.91343 0.839185 4.97244C0.699035 5.03145 0.56995 5.11259 0.451929 5.21586C0.34866 5.33388 0.267521 5.46297 0.208511 5.60312C0.1495 5.74327 0.119995 5.8871 0.119995 6.03463L0.142124 17.4753C0.142124 17.6228 0.171629 17.7666 0.23064 17.9068C0.28965 18.0469 0.370789 18.176 0.474058 18.294C0.592078 18.3973 0.721164 18.4785 0.861313 18.5375C1.00146 18.5965 1.1453 18.626 1.29283 18.626L21.6293 18.6038C21.9391 18.6038 22.2083 18.4895 22.437 18.2608C22.6657 18.0322 22.78 17.7556 22.78 17.431L22.7579 6.0125ZM20.3237 6.0125L11.45 12.1865L2.55417 6.03463L20.3237 6.0125ZM15.2119 13.3593L20.4786 17.431L2.4214 17.4531L7.71021 13.3593C7.84298 13.256 7.91675 13.1269 7.9315 12.972C7.94625 12.8171 7.90937 12.6733 7.82085 12.5405C7.71759 12.4078 7.5885 12.334 7.4336 12.3192C7.2787 12.3045 7.13486 12.3414 7.00208 12.4299L1.29283 16.8557L1.2707 6.56572L11.1181 13.3814C11.1771 13.4109 11.2324 13.4331 11.284 13.4478C11.3357 13.4626 11.391 13.4699 11.45 13.4699C11.509 13.4699 11.568 13.4626 11.627 13.4478C11.686 13.4331 11.7377 13.4109 11.7819 13.3814L21.6072 6.54359L21.6293 16.8557L15.92 12.4299C15.7873 12.3414 15.6434 12.3045 15.4885 12.3192C15.3336 12.334 15.2045 12.4078 15.1013 12.5405C14.998 12.6733 14.9574 12.8171 14.9796 12.972C15.0017 13.1269 15.0791 13.256 15.2119 13.3593Z" fill="#F9F9FE"/>
</g>
<defs>
<clipPath id="clip0_736_2158">
<rect width="22.66" height="22.66" fill="white" transform="matrix(1 0 0 -1 0.119995 22.7863)"/>
</clipPath>
</defs>
</svg>
