<svg width="19" height="19" viewBox="0 0 19 19" fill="none" xmlns="http://www.w3.org/2000/svg">
<path d="M14.475 11.5029C14.2875 11.3154 14.0853 11.1719 13.8685 11.0723C13.6517 10.9727 13.4261 10.9229 13.1918 10.9229C12.9574 10.9229 12.7318 10.9727 12.515 11.0723C12.2982 11.1719 12.0902 11.3154 11.891 11.5029L10.6957 12.6982C10.6488 12.6748 10.599 12.6514 10.5463 12.6279C10.4935 12.6045 10.4437 12.5752 10.3968 12.54C10.3382 12.5166 10.2767 12.4873 10.2123 12.4521C10.1478 12.417 10.0863 12.3818 10.0277 12.3467C9.4652 11.9951 8.92614 11.582 8.41051 11.1074C7.89489 10.6328 7.39098 10.0967 6.89879 9.49902C6.66442 9.19434 6.4652 8.91309 6.30114 8.65527C6.13707 8.39746 5.99645 8.13965 5.87926 7.88184C6.0316 7.74121 6.18102 7.59766 6.3275 7.45117C6.47399 7.30469 6.61754 7.16113 6.75817 7.02051C6.80504 6.96191 6.85778 6.90625 6.91637 6.85352C6.97496 6.80078 7.0277 6.74512 7.07457 6.68652C7.47301 6.28809 7.67223 5.85156 7.67223 5.37695C7.67223 4.90234 7.47301 4.46582 7.07457 4.06738L6.03746 3.03027C5.97887 2.97168 5.92028 2.91016 5.86168 2.8457C5.80309 2.78125 5.74449 2.71973 5.6859 2.66113C5.56871 2.54395 5.45153 2.42676 5.33434 2.30957C5.21715 2.19238 5.09996 2.0752 4.98278 1.95801C4.79528 1.77051 4.59313 1.62988 4.37633 1.53613C4.15953 1.44238 3.93395 1.39551 3.69957 1.39551C3.4652 1.39551 3.23961 1.44238 3.02281 1.53613C2.80602 1.62988 2.60387 1.77051 2.41637 1.95801C2.41637 1.95801 2.41051 1.95801 2.39879 1.95801L1.11559 3.27637C0.869494 3.51074 0.679065 3.77734 0.544299 4.07617C0.409533 4.375 0.324572 4.69434 0.289416 5.03418C0.242541 5.58496 0.280627 6.10645 0.403674 6.59863C0.526721 7.09082 0.652697 7.50684 0.781604 7.84668C1.08629 8.67871 1.47594 9.49023 1.95055 10.2812C2.42516 11.0723 3.00231 11.8779 3.68199 12.6982C4.10387 13.2021 4.54332 13.6709 5.00035 14.1045C5.45739 14.5498 5.93492 14.9688 6.43297 15.3613C6.93102 15.7539 7.44371 16.1143 7.97106 16.4424C8.51012 16.7822 9.06676 17.0869 9.64098 17.3564C10.0746 17.5674 10.5755 17.7754 11.1439 17.9805C11.7123 18.1855 12.3246 18.3115 12.9808 18.3584C13.016 18.3584 13.0541 18.3584 13.0951 18.3584C13.1361 18.3584 13.18 18.3584 13.2269 18.3584C13.6605 18.3584 14.0619 18.2793 14.431 18.1211C14.8002 17.9629 15.1254 17.7256 15.4066 17.4092C15.4183 17.4092 15.4242 17.4092 15.4242 17.4092C15.4242 17.4092 15.4242 17.4033 15.4242 17.3916C15.5297 17.2744 15.638 17.1602 15.7494 17.0488C15.8607 16.9375 15.975 16.8232 16.0922 16.7061C16.1742 16.6357 16.2562 16.5596 16.3382 16.4775C16.4203 16.3955 16.5023 16.3076 16.5843 16.2139C16.7718 16.0264 16.9154 15.8213 17.015 15.5986C17.1146 15.376 17.1644 15.1475 17.1644 14.9131C17.1644 14.6787 17.1146 14.4502 17.015 14.2275C16.9154 14.0049 16.766 13.7939 16.5668 13.5947L14.475 11.5029ZM15.8461 15.5107C15.764 15.5928 15.6849 15.6689 15.6088 15.7393C15.5326 15.8096 15.4535 15.8857 15.3714 15.9678C15.2543 16.085 15.1312 16.208 15.0023 16.3369C14.8734 16.4658 14.7504 16.5947 14.6332 16.7236C14.4457 16.9346 14.2347 17.0898 14.0004 17.1895C13.766 17.2891 13.5023 17.3389 13.2093 17.3389C13.1859 17.3389 13.1595 17.3389 13.1302 17.3389C13.1009 17.3389 13.0687 17.3389 13.0336 17.3389C12.4711 17.292 11.9349 17.1777 11.4252 16.9961C10.9154 16.8145 10.4672 16.6299 10.0804 16.4424C9.54137 16.1846 9.01989 15.8975 8.51598 15.5811C8.01207 15.2646 7.52574 14.9248 7.05699 14.5615C6.58824 14.1982 6.13707 13.8057 5.70348 13.3838C5.26989 12.9619 4.85973 12.5166 4.47301 12.0479C3.82848 11.2627 3.28356 10.501 2.83824 9.7627C2.39293 9.02441 2.02379 8.26855 1.73082 7.49512C1.55504 7.02637 1.43492 6.59863 1.37047 6.21191C1.30602 5.8252 1.28551 5.46191 1.30895 5.12207C1.33238 4.89941 1.38512 4.69434 1.46715 4.50684C1.54918 4.31934 1.67223 4.14941 1.83629 3.99707L3.11949 2.69629C3.21324 2.60254 3.30992 2.53516 3.40953 2.49414C3.50914 2.45312 3.60582 2.43262 3.69957 2.43262C3.81676 2.43262 3.92516 2.46191 4.02477 2.52051C4.12438 2.5791 4.20348 2.6377 4.26207 2.69629C4.37926 2.81348 4.49352 2.92773 4.60485 3.03906C4.71617 3.15039 4.83043 3.26465 4.94762 3.38184C5.00621 3.44043 5.06774 3.50195 5.13219 3.56641C5.19664 3.63086 5.25817 3.69238 5.31676 3.75098L6.35387 4.78809C6.55309 4.9873 6.6527 5.18359 6.6527 5.37695C6.6527 5.57031 6.55309 5.7666 6.35387 5.96582C6.29528 6.02441 6.23961 6.08008 6.18688 6.13281C6.13414 6.18555 6.07848 6.24121 6.01989 6.2998C5.86754 6.46387 5.71227 6.62207 5.55406 6.77441C5.39586 6.92676 5.23473 7.07324 5.07067 7.21387C5.07067 7.22559 5.06774 7.23145 5.06188 7.23145C5.05602 7.23145 5.05309 7.23145 5.05309 7.23145C4.88903 7.39551 4.80699 7.55371 4.80699 7.70605C4.80699 7.8584 4.82457 7.9873 4.85973 8.09277C4.85973 8.10449 4.85973 8.11328 4.85973 8.11914C4.85973 8.125 4.86559 8.12793 4.87731 8.12793C5.00621 8.45605 5.17028 8.78125 5.36949 9.10352C5.56871 9.42578 5.80895 9.76855 6.0902 10.1318H6.10778C6.6234 10.7764 7.16246 11.3535 7.72496 11.8633C8.28746 12.373 8.8734 12.8213 9.48278 13.208C9.55309 13.2549 9.62926 13.2988 9.71129 13.3398C9.79332 13.3809 9.86949 13.4189 9.93981 13.4541C10.0101 13.4893 10.0775 13.5244 10.142 13.5596C10.2064 13.5947 10.2679 13.6299 10.3265 13.665C10.3265 13.665 10.3324 13.668 10.3441 13.6738C10.3558 13.6797 10.3617 13.6826 10.3617 13.6826C10.432 13.7178 10.4964 13.7441 10.555 13.7617C10.6136 13.7793 10.6781 13.7881 10.7484 13.7881C10.9007 13.7881 11.0267 13.7529 11.1263 13.6826C11.2259 13.6123 11.2875 13.5596 11.3109 13.5244L12.6117 12.2236C12.682 12.1533 12.767 12.0889 12.8666 12.0303C12.9662 11.9717 13.0746 11.9424 13.1918 11.9424C13.3089 11.9424 13.4144 11.9717 13.5082 12.0303C13.6019 12.0889 13.6781 12.1475 13.7367 12.2061C13.7367 12.2178 13.7367 12.2236 13.7367 12.2236C13.7367 12.2236 13.7425 12.2236 13.7543 12.2236L15.8461 14.3154C16.0336 14.5146 16.1273 14.7139 16.1273 14.9131C16.1273 15.1123 16.0336 15.3115 15.8461 15.5107ZM9.97496 4.62988C10.4789 4.72363 10.9535 4.88477 11.3988 5.11328C11.8441 5.3418 12.2484 5.6377 12.6117 6.00098C12.9632 6.36426 13.2562 6.76855 13.4906 7.21387C13.725 7.65918 13.8832 8.12793 13.9652 8.62012C13.9886 8.74902 14.0472 8.85156 14.141 8.92773C14.2347 9.00391 14.3461 9.04199 14.475 9.04199C14.4867 9.04199 14.4984 9.04199 14.5101 9.04199C14.5218 9.04199 14.5394 9.04199 14.5629 9.04199C14.7035 9.01855 14.8148 8.94824 14.8968 8.83105C14.9789 8.71387 15.0082 8.58496 14.9847 8.44434C14.8793 7.84668 14.6859 7.27832 14.4047 6.73926C14.1234 6.2002 13.766 5.71387 13.3324 5.28027C12.8988 4.84668 12.4125 4.48926 11.8734 4.20801C11.3343 3.92676 10.766 3.7334 10.1683 3.62793C10.0277 3.60449 9.89879 3.63379 9.7816 3.71582C9.66442 3.79785 9.5941 3.90918 9.57067 4.0498C9.54723 4.17871 9.5736 4.30176 9.64977 4.41895C9.72594 4.53613 9.83434 4.60645 9.97496 4.62988ZM18.2367 8.30371C18.1546 7.7998 18.0316 7.31348 17.8675 6.84473C17.7152 6.37598 17.5248 5.92188 17.2963 5.48242C17.0677 5.04297 16.807 4.61816 16.514 4.20801C16.2093 3.80957 15.8812 3.42871 15.5297 3.06543C15.1664 2.71387 14.7855 2.3916 14.3871 2.09863C13.9769 1.79395 13.5521 1.53027 13.1127 1.30762C12.6732 1.08496 12.2191 0.891602 11.7504 0.727539C11.2816 0.575195 10.8011 0.452148 10.3089 0.358398C10.1683 0.334961 10.0394 0.364258 9.92223 0.446289C9.80504 0.52832 9.73473 0.639648 9.71129 0.780273C9.68785 0.920898 9.71715 1.0498 9.79918 1.16699C9.88121 1.28418 9.99254 1.35449 10.1332 1.37793C11.0238 1.53027 11.8646 1.81152 12.6556 2.22168C13.4466 2.63184 14.1644 3.15918 14.8089 3.80371C15.4535 4.43652 15.9808 5.15137 16.391 5.94824C16.8011 6.74512 17.0765 7.58301 17.2171 8.46191C17.2406 8.59082 17.3021 8.69336 17.4017 8.76953C17.5013 8.8457 17.6097 8.88379 17.7269 8.88379C17.7504 8.88379 17.7679 8.88379 17.7796 8.88379C17.7914 8.88379 17.8031 8.88379 17.8148 8.88379C17.9554 8.86035 18.0668 8.79004 18.1488 8.67285C18.2308 8.55566 18.2601 8.43262 18.2367 8.30371Z" fill="#964734"/>
</svg>
