<svg width="37" height="37" viewBox="0 0 37 37" fill="none" xmlns="http://www.w3.org/2000/svg">
<path d="M35.5137 25.8799L32.2109 22.5771C31.7161 22.0824 31.0915 21.8473 30.3369 21.8721C29.5824 21.8968 28.9701 22.1566 28.5 22.6514C27.4362 23.8389 26.6569 24.5872 26.1621 24.8965C25.6673 25.2057 25.3704 25.3851 25.2715 25.4346C25.0736 25.4593 24.8757 25.4779 24.6777 25.4902C24.4798 25.5026 24.2943 25.5088 24.1211 25.5088C23.3294 25.5088 22.5007 25.3727 21.6348 25.1006C20.7689 24.8285 19.8906 24.4326 19 23.9131C18.1094 23.3936 17.2435 22.7751 16.4023 22.0576C15.5612 21.3402 14.7819 20.5361 14.0645 19.6455C12.877 18.1859 12.0111 16.7015 11.4668 15.1924C10.9225 13.6833 10.7617 12.335 10.9844 11.1475C11.0339 11.0732 11.2132 10.7826 11.5225 10.2754C11.8317 9.76823 12.5801 8.98275 13.7676 7.91895C14.0397 7.67155 14.25 7.38704 14.3984 7.06543C14.5469 6.74381 14.6211 6.40983 14.6211 6.06348C14.6211 5.69238 14.5469 5.34603 14.3984 5.02441C14.25 4.7028 14.0645 4.43066 13.8418 4.20801L10.5391 0.868164C10.1185 0.44759 9.59277 0.206379 8.96191 0.144531C8.33105 0.0826836 7.76823 0.224934 7.27344 0.571289C6.45703 1.16504 5.61589 1.80827 4.75 2.50098C3.88411 3.19368 3.09863 3.88639 2.39355 4.5791C1.68848 5.27181 1.11328 5.95215 0.667969 6.62012C0.222656 7.31283 0 7.94369 0 8.5127C0 10.9867 0.989583 13.8317 2.96875 17.0479C4.94792 20.264 7.3724 23.307 10.2422 26.1768C13.112 29.0465 16.1549 31.4587 19.3711 33.4131C22.5872 35.3923 25.4323 36.3818 27.9062 36.3818C28.5 36.3818 29.1432 36.1592 29.8359 35.7139C30.5039 35.2686 31.1904 34.6995 31.8955 34.0068C32.6006 33.3141 33.2871 32.5348 33.9551 31.6689C34.6478 30.8031 35.2786 29.9619 35.8477 29.1455C36.194 28.6507 36.3363 28.0941 36.2744 27.4756C36.2126 26.8571 35.959 26.3252 35.5137 25.8799ZM34.6973 28.3662C33.2624 30.3701 31.9388 31.9658 30.7266 33.1533C29.5143 34.3408 28.599 34.9346 27.9805 34.9346C25.7044 34.9346 23.0449 33.9821 20.002 32.0771C16.959 30.1722 14.0706 27.859 11.3369 25.1377C8.60319 22.4163 6.29622 19.5342 4.41602 16.4912C2.51107 13.4482 1.55859 10.7887 1.55859 8.5127C1.55859 7.86947 2.13997 6.94792 3.30273 5.74805C4.46549 4.54818 6.07357 3.23079 8.12695 1.7959C8.32487 1.6722 8.54134 1.62272 8.77637 1.64746C9.01139 1.6722 9.22786 1.7959 9.42578 2.01855L12.7656 5.3584C12.9883 5.60579 13.0687 5.8903 13.0068 6.21191C12.945 6.53353 12.8398 6.75619 12.6914 6.87988C11.3802 8.09212 10.5267 9.0013 10.1309 9.60742C9.73503 10.2135 9.5 10.6774 9.42578 10.999C9.15365 12.4092 9.31445 13.9678 9.9082 15.6748C10.502 17.3818 11.4792 19.0641 12.8398 20.7217C13.6315 21.6865 14.485 22.5648 15.4004 23.3564C16.3405 24.1234 17.293 24.7913 18.2578 25.3604C19.2227 25.9294 20.1999 26.3623 21.1895 26.6592C22.179 26.9561 23.1191 27.1045 24.0098 27.1045C24.2819 27.1045 24.5417 27.0921 24.7891 27.0674C25.0365 27.0426 25.2715 27.0055 25.4941 26.9561C25.791 26.8818 26.2487 26.653 26.8672 26.2695C27.4857 25.8861 28.3887 25.0387 29.5762 23.7275C29.7741 23.5049 30.0339 23.3874 30.3555 23.375C30.6771 23.3626 30.9368 23.4554 31.1348 23.6533L34.5117 27.0303C34.7096 27.2035 34.8271 27.4199 34.8643 27.6797C34.9014 27.9395 34.8457 28.1683 34.6973 28.3662ZM29.502 7.28809C30.7884 8.5498 31.6914 10.0404 32.2109 11.7598C32.7305 13.4792 32.8294 15.2048 32.5078 16.9365L33.9922 17.1592C34.1654 16.1696 34.2148 15.1676 34.1406 14.1533C34.0664 13.1637 33.8809 12.1989 33.584 11.2588C33.2871 10.3187 32.8913 9.41569 32.3965 8.5498C31.9017 7.70866 31.2956 6.92936 30.5781 6.21191C29.8359 5.44499 29.0195 4.80176 28.1289 4.28223C27.2135 3.7627 26.2611 3.36068 25.2715 3.07617C24.2819 2.79167 23.2676 2.62468 22.2285 2.5752C21.1895 2.55046 20.138 2.64941 19.0742 2.87207L19.4082 4.35645C21.2142 3.93587 23.014 3.97917 24.8076 4.48633C26.6012 4.99349 28.166 5.92741 29.502 7.28809ZM28.3516 16.417C28.5495 15.279 28.4814 14.1657 28.1475 13.0771C27.8135 11.9886 27.2383 11.0361 26.4219 10.2197C25.5807 9.37858 24.5911 8.79102 23.4531 8.45703C22.3151 8.12305 21.14 8.09212 19.9277 8.36426L20.2617 9.84863C21.1771 9.65072 22.0863 9.68164 22.9893 9.94141C23.8923 10.2012 24.6777 10.6527 25.3457 11.2959C26.0137 11.9639 26.4775 12.7246 26.7373 13.5781C26.9971 14.4316 27.0527 15.2913 26.9043 16.1572L28.3516 16.417Z" fill="#964734"/>
</svg>
