<svg width="36" height="39" viewBox="0 0 36 39" fill="none" xmlns="http://www.w3.org/2000/svg">
<path d="M27.8691 17.2666V21.0518H32.9531V17.2666H27.8691ZM31.6543 19.79H29.1309V18.5283H31.6543V19.79ZM27.8691 22.3135V26.1357H32.9531V22.3135H27.8691ZM31.6543 24.874H29.1309V23.5752H31.6543V24.874ZM27.8691 27.3975V31.1826H32.9531V27.3975H27.8691ZM31.6543 29.9209H29.1309V28.6592H31.6543V29.9209ZM27.8691 32.4443V36.2666H32.9531V32.4443H27.8691ZM31.6543 35.0049H29.1309V33.7061H31.6543V35.0049ZM20.2617 7.13574V3.31348H15.2148V7.13574H11.3926V12.1826H15.2148V16.0049H20.2617V12.1826H24.084V7.13574H20.2617ZM22.8223 10.9209H19V14.7061H16.4766V10.9209H12.6543V8.39746H16.4766V4.5752H19V8.39746H22.8223V10.9209ZM26.6074 14.7061V0.790039H8.86914V14.7061H0V38.79H35.4766V14.7061H26.6074ZM8.86914 37.5283H1.26172V16.0049H8.86914V37.5283ZM17.1074 37.5283H13.9531V26.1357H17.1074V37.5283ZM21.5234 37.5283H18.3691V26.1357H21.5234V37.5283ZM25.3457 37.5283H22.8223V24.874H12.6543V37.5283H10.1309V2.05176H25.3457V37.5283ZM34.2148 37.5283H26.6074V16.0049H34.2148V37.5283ZM2.52344 17.2666V21.0518H7.60742V17.2666H2.52344ZM6.3457 19.79H3.82227V18.5283H6.3457V19.79ZM2.52344 22.3135V26.1357H7.60742V22.3135H2.52344ZM6.3457 24.874H3.82227V23.5752H6.3457V24.874ZM2.52344 27.3975V31.1826H7.60742V27.3975H2.52344ZM6.3457 29.9209H3.82227V28.6592H6.3457V29.9209ZM2.52344 32.4443V36.2666H7.60742V32.4443H2.52344ZM6.3457 35.0049H3.82227V33.7061H6.3457V35.0049Z" fill="#964734"/>
</svg>
