<svg width="480" height="69" viewBox="0 0 480 69" fill="none" xmlns="http://www.w3.org/2000/svg">
<path d="M23.5277 50.9844C23.3703 50.7455 23.0585 50.6669 22.8238 50.5066C22.0813 49.9866 21.2972 49.5482 20.5933 49.0281C20.5161 48.9495 20.3973 48.9102 20.2814 48.8679C19.8894 48.7076 19.4973 48.4687 19.1855 48.1906C18.8736 47.9487 18.5202 47.7098 18.1697 47.5103C17.3084 46.9902 16.447 46.4339 15.5857 45.8745C14.9234 45.4331 14.2195 44.9947 13.5542 44.5562C13.0047 44.2357 12.4582 43.8759 11.9087 43.5161C11.3236 43.1563 10.7356 42.7572 10.1504 42.3581C9.52376 41.959 8.89707 41.5206 8.23177 41.1608C7.8813 40.9612 7.56944 40.7193 7.216 40.4805C6.63089 40.1207 6.08142 39.7609 5.49632 39.4041C5.18149 39.2045 4.86963 39.0019 4.5548 38.8024C4.08552 38.5242 3.65783 38.2037 3.18855 37.9255C2.56186 37.5264 1.93517 37.1666 1.35007 36.7252C0.996625 36.4863 0.723376 36.2082 0.52735 35.8483C0.369935 35.5672 0.17391 35.289 0.135298 34.9685C0.135298 34.9292 0.0966867 34.9292 0.0966867 34.8899C0.135298 34.5301 -0.060728 34.2096 0.0194639 33.8498C0.135298 33.2904 0.21549 32.731 0.52735 32.2533C0.723376 31.9328 0.958014 31.6153 1.26987 31.3735C1.62331 31.0953 2.0124 30.8957 2.36584 30.6569C2.71928 30.415 3.06975 30.2154 3.42319 29.9766C4.0083 29.5775 4.59638 29.2176 5.18148 28.8185C5.80817 28.3801 6.47347 28.0203 7.10016 27.6212C7.41202 27.4216 7.68527 27.2221 7.99713 27.0195C8.46938 26.7413 8.93865 26.4632 9.40793 26.1427C10.1504 25.6226 10.893 25.1449 11.6741 24.7035C12.4582 24.2257 13.2393 23.7057 14.0234 23.2279C14.6086 22.8681 15.2352 22.469 15.7817 22.0669C16.3312 21.7101 16.8777 21.3896 17.4242 21.0298C17.7776 20.7909 18.0895 20.5491 18.4816 20.3495C18.9122 20.1499 19.2627 19.7901 19.6547 19.5513C20.0468 19.3124 20.4388 19.0312 20.8279 18.7924C21.1814 18.5535 21.4932 18.3539 21.8467 18.1544C22.1971 17.9548 22.5506 17.716 22.8624 17.4741C23.0585 17.3138 23.2931 17.1959 23.5277 17.075C23.605 17.0357 23.605 16.9964 23.5664 16.8754C23.4089 16.5156 23.1743 16.1981 22.9812 15.8383C22.8624 15.6388 22.8238 15.4392 22.6278 15.279C22.5892 15.2397 22.5892 15.1187 22.6664 15.0794C23.0971 14.8375 23.5277 14.5201 23.997 14.2782C24.3505 14.1209 24.7009 14 25.093 14C25.5236 14 25.9127 14 26.3048 14.1602C26.5394 14.3205 26.8929 14.4807 27.2047 14.6803C27.674 14.9978 27.9472 15.4785 28.1819 15.9986C28.3007 16.2374 28.3779 16.5156 28.4165 16.8361C28.4165 17.0357 28.5353 17.2352 28.4967 17.4348C28.3779 18.0728 28.3007 18.6744 27.9472 19.2338C27.6354 19.6722 27.2433 20.0713 26.8127 20.3495C26.0315 20.8303 25.289 21.3503 24.5049 21.828C23.801 22.2665 23.0971 22.7079 22.4318 23.1463C22.0813 23.3459 21.7279 23.5847 21.416 23.7843C21.1012 23.9869 20.7507 24.1864 20.4388 24.4253C20.0854 24.6641 19.7735 24.8637 19.4201 25.1026C18.8736 25.4624 18.3241 25.8615 17.739 26.2213C17.1896 26.5418 16.6431 26.9409 16.0966 27.2614C15.7045 27.5003 15.3125 27.7784 14.9234 28.0203C14.4541 28.3378 13.9819 28.619 13.5126 28.8972C12.7701 29.3779 11.9889 29.8556 11.2464 30.3364C10.7771 30.6569 10.2663 30.935 9.79701 31.2555C9.36634 31.573 8.97726 31.9328 8.78124 32.4136C8.58521 32.8127 8.38918 33.2511 8.4278 33.7318C8.4278 33.8498 8.4278 33.9314 8.35057 34.0493C8.27335 34.131 8.46938 34.2489 8.4278 34.4091C8.38918 34.8899 8.5466 35.289 8.78124 35.6881C9.0931 36.2475 9.48515 36.7252 10.0703 37.0457C10.3851 37.2059 10.6969 37.4448 10.9702 37.6444C11.4395 37.9255 11.9087 38.2037 12.381 38.5242C13.1235 39.0443 13.9046 39.4827 14.6472 39.9604C15.0392 40.2023 15.3927 40.4805 15.8204 40.7193C16.2124 40.9612 16.6045 41.2394 16.9965 41.4782C17.7004 41.9197 18.4043 42.3581 19.1082 42.8389C19.4587 43.0777 19.8122 43.3166 20.1626 43.5554C20.6319 43.8366 21.0626 44.1571 21.5318 44.4353C22.3546 44.9947 23.2159 45.5147 24.0742 46.0741C24.6237 46.4339 25.1702 46.7514 25.7197 47.1112C26.2276 47.3924 26.6968 47.7098 27.1661 48.0696C27.4394 48.2692 27.7126 48.5504 27.9086 48.8286C28.2621 49.3093 28.3779 49.6268 28.4165 50.1861C28.4551 50.3857 28.5353 50.5852 28.4967 50.7848C28.4551 51.1053 28.4165 51.4258 28.3007 51.704C28.1819 52.0245 28.0274 52.345 27.8314 52.6624C27.4007 53.3427 26.7741 53.7026 26.0701 53.9021C25.6009 54.02 25.1316 54.1803 24.6623 53.9414C24.1158 53.9414 23.6852 53.6209 23.2159 53.3427C23.0199 53.2218 22.8238 53.1039 22.6278 52.9829C22.4318 52.862 22.4318 52.862 22.5506 52.7017C22.7852 52.345 22.9812 51.9428 23.2159 51.586C23.3317 51.3049 23.4089 51.1446 23.5277 50.9844Z" fill="white"/>
<path d="M25.993 32.4525C26.1475 33.1328 26.0702 33.8101 26.1089 34.5297C26.1089 34.7686 25.993 35.0075 25.993 35.2493C25.993 35.4882 26.0702 35.7271 25.9128 35.9659C25.993 36.2471 25.797 36.486 25.8356 36.7672C25.8742 36.9274 25.7584 37.006 25.7198 37.127C25.5624 37.9645 25.3277 38.802 25.0129 39.6033C24.7396 40.2806 24.4278 40.9609 24.1159 41.6381C23.8397 42.1975 23.9199 42.1189 23.409 41.7984C23.1744 41.6381 22.9012 41.5202 22.6665 41.36C22.12 41.0002 21.5319 40.719 20.9468 40.4015C20.3974 40.081 19.8123 39.7605 19.2628 39.443C19.0282 39.0832 18.6777 38.802 18.6777 38.285C18.6777 38.1248 18.6391 37.9252 18.7163 37.7649C18.8351 37.5261 18.9895 37.4051 19.2628 37.3265C19.735 37.1663 20.1627 37.006 20.5548 36.7248C21.2201 36.2078 21.6507 35.6091 21.8854 34.7686C22.0012 34.3695 22.0012 33.9311 21.9626 33.5319C21.8854 32.8909 21.6507 32.3316 21.2587 31.8146C20.8666 31.2552 20.1241 30.8561 19.539 30.6142C19.3816 30.5356 19.1856 30.5749 19.0697 30.4146C18.9123 30.2544 18.7935 29.9762 18.8351 29.7767C18.8737 29.6164 18.8351 29.4955 18.9123 29.3382C19.1083 28.9391 19.343 28.6186 19.6935 28.4191C20.2429 28.0593 20.7894 27.6995 21.3775 27.3397C22.0814 26.8619 22.8239 26.4205 23.5278 25.9428C23.6466 25.8611 23.8011 25.8611 23.8397 25.9821C23.8813 26.103 23.9971 26.1816 24.0357 26.3026C24.2704 26.8619 24.6238 27.379 24.8584 27.9807C25.0545 28.4977 25.2891 29.0177 25.4436 29.5771C25.5237 29.8976 25.6782 30.1758 25.6782 30.5356C25.8356 30.6565 25.7198 30.8954 25.8356 31.0556C25.9128 31.1736 25.7584 31.4154 25.9544 31.5727C25.8742 31.7722 26.0702 32.0927 25.993 32.4525Z" fill="white"/>
<path d="M36.4357 43.2379C36.4743 43.8365 35.8892 44.3959 35.3397 44.3142C35.1467 44.2749 34.9892 44.2356 34.8318 44.1147C34.2853 43.7156 33.7774 43.3558 33.228 42.996C32.6815 42.6392 32.132 42.2794 31.6241 41.9196C31.0776 41.5598 30.5697 41.2 30.0203 40.8402C29.9431 40.8009 29.8658 40.7615 29.9431 40.6406C30.2549 40.0812 30.4509 39.4826 30.6856 38.8839C30.7242 38.7237 30.7242 38.8023 30.843 38.8446C31.235 39.0018 31.5855 39.283 31.939 39.5219C32.8775 40.1205 33.7774 40.7615 34.716 41.3995C35.1467 41.72 35.5744 41.9982 36.0436 42.2794C36.2783 42.5182 36.4357 42.8387 36.4357 43.2379Z" fill="white"/>
<path d="M36.4359 24.8241C36.3973 25.1023 36.2785 25.3835 35.9666 25.6224C34.8707 26.3813 33.7361 27.1402 32.6431 27.8991C32.1323 28.2196 31.663 28.5794 31.1551 28.9392C31.0779 29.0178 30.9591 29.0178 30.8818 29.0965C30.8432 29.1388 30.7244 29.1388 30.6858 28.9785C30.57 28.6187 30.4898 28.2589 30.2938 27.9384C30.1779 27.7389 30.1779 27.5 30.0205 27.3005C29.9433 27.2218 30.0205 27.0616 30.1393 27.0193C30.6858 26.7018 31.1551 26.3027 31.7046 25.9822C32.4471 25.5014 33.1896 24.9451 33.9707 24.4643C34.3628 24.2255 34.6747 23.905 35.1053 23.7447C35.34 23.6661 35.6548 23.6661 35.8508 23.784C36.0855 23.8657 36.2399 24.1045 36.3973 24.3041C36.4745 24.3857 36.4359 24.5853 36.4359 24.8241Z" fill="white"/>
<path d="M31.4696 35.0081C31.4696 34.2915 31.4696 33.6112 31.4696 32.8916C31.624 32.8916 31.7429 32.8916 31.8973 32.8916C33.7774 32.8916 35.6931 32.8916 37.5702 32.8916C37.9622 32.8916 38.3929 33.0912 38.5889 33.6505C38.7047 34.0103 38.6275 34.3701 38.3929 34.6513C38.1969 34.8902 37.9236 35.0081 37.6088 35.0081C35.5743 35.0081 33.5427 35.0081 31.4696 35.0081Z" fill="white"/>
<path d="M82.986 28.4981C83.3751 29.0574 83.7671 29.5775 84.079 30.1368C84.4324 30.7748 84.8631 31.3342 85.2136 31.9328C85.6442 32.6524 86.0749 33.3721 86.5828 34.0493C86.663 34.1703 86.5828 34.2912 86.4669 34.2912C85.4096 34.2912 84.3938 34.2912 83.3365 34.2912C83.1404 34.2912 83.0632 34.1703 82.986 34.01C82.4365 32.9729 81.8514 31.9752 81.3406 30.9351C80.8713 30.0552 80.3248 29.1784 79.9327 28.2592C79.8555 28.0596 79.6595 27.9387 79.5436 27.7391C79.5436 29.898 79.5436 32.0538 79.5436 34.2489C78.5249 34.3305 77.5091 34.2489 76.4518 34.2912C76.4518 34.0493 76.4518 33.8105 76.4518 33.5716C76.4518 29.0181 76.4518 24.4646 76.4518 19.9111C76.4518 19.7509 76.4518 19.6329 76.4518 19.4727C76.4518 19.1522 76.5706 19.0312 76.8438 19.0312C78.0556 19.0312 79.309 19.0312 80.5208 19.0312C80.9901 19.2338 81.498 19.1522 82.0059 19.1915C82.3593 19.2338 82.6712 19.3911 83.0246 19.3911C83.6097 19.4334 84.1206 19.7509 84.5898 20.0321C85.3324 20.5098 86.2323 21.5892 86.3867 22.7079C86.5055 23.6271 86.6214 24.7428 86.3481 25.4231C86.1521 25.9824 85.9175 26.5418 85.4482 26.9802C84.9789 27.4217 84.5483 27.9387 83.883 28.1383C83.5711 28.2985 83.2978 28.4194 82.986 28.4981ZM79.3476 26.6204C79.6595 26.6204 79.8941 26.5811 80.1674 26.6204C80.4436 26.6628 80.6782 26.4632 80.9515 26.4632C81.6168 26.5025 82.2019 26.2213 82.7098 25.9038C83.2206 25.5833 83.5325 25.0633 83.4939 24.4253C83.4939 24.1441 83.4939 23.8659 83.4939 23.5848C83.4939 23.4668 83.4939 23.3852 83.4553 23.2673C83.1404 22.3874 82.4365 21.9883 81.6168 21.8674C80.8713 21.7494 80.0901 21.8281 79.309 21.8281C79.3476 23.3852 79.3476 24.9847 79.3476 26.6204Z" fill="white"/>
<path d="M205.107 34.291C204.089 34.291 203.15 34.291 202.173 34.291C202.173 29.2174 202.173 24.1862 202.173 19.1126C202.289 18.9917 202.485 19.0733 202.681 19.0733C203.542 19.0733 204.403 19.031 205.262 19.0733C206.046 19.1126 206.866 19.1912 207.65 19.2336C208.158 19.2729 208.704 19.3908 209.215 19.5904C210.347 20.0318 210.973 20.5488 211.523 21.5496C211.835 22.1483 212.146 22.747 212.031 23.4666C211.992 23.7054 212.342 23.905 212.108 24.1439C211.95 24.3434 212.031 24.5853 212.031 24.8242C212.031 25.1023 211.796 25.2626 211.873 25.5438C211.523 26.3027 211.208 27.0616 210.504 27.5786C209.996 27.9384 209.408 28.2196 208.823 28.4192C208.627 28.4978 208.627 28.5794 208.746 28.6974C209.173 29.2174 209.527 29.8554 209.877 30.4148C210.231 31.0134 210.623 31.5728 210.935 32.1745C211.288 32.8124 211.716 33.4111 212.146 34.0098C212.185 34.0491 212.146 34.0914 212.185 34.2093C211.639 34.3303 211.053 34.2486 210.504 34.2486C209.919 34.2486 209.331 34.2486 208.784 34.2486C208.315 33.6107 208.039 32.8911 207.65 32.2138C207.335 31.6937 207.062 31.1344 206.75 30.6143C206.358 29.8554 205.966 29.0965 205.496 28.3799C205.342 28.138 205.262 27.8598 205.069 27.4607C205.107 29.8161 205.107 32.0142 205.107 34.291ZM205.107 26.6202C205.419 26.6202 205.692 26.5809 205.927 26.6202C206.2 26.6625 206.435 26.4206 206.711 26.4629C206.984 26.5022 207.18 26.342 207.415 26.342C207.846 26.3027 208.158 26.1031 208.469 25.8219C208.861 25.4621 209.173 25.0237 209.173 24.4251C209.527 23.8657 209.173 23.3849 209.019 22.9072C208.9 22.5867 208.588 22.2662 208.273 22.109C207.962 21.9881 207.65 21.8278 207.296 21.7885C206.592 21.7492 205.888 21.7885 205.146 21.7885C205.107 23.3849 205.107 24.9844 205.107 26.6202Z" fill="white"/>
<path d="M183.788 23.7447C182.576 23.7447 181.442 23.7447 180.307 23.7447C180.15 23.7447 180.15 23.6661 180.072 23.5844C179.484 22.8678 178.78 22.4264 177.881 22.1875C177.215 21.988 176.553 22.1482 175.926 22.0666C175.573 22.3085 175.142 22.2268 174.753 22.4687C174.4 22.7076 174.049 22.9465 173.734 23.2276C173.03 23.8263 172.638 24.6245 172.365 25.5014C172.326 25.583 172.326 25.6616 172.288 25.7433C172.288 25.9821 172.249 26.221 172.169 26.4629C172.092 26.7017 172.092 27.0615 172.288 27.3004C172.211 27.7781 172.404 28.1803 172.561 28.6187C172.834 29.4169 173.304 30.0972 173.969 30.6142C174.4 30.974 174.869 31.2945 175.418 31.3338C175.611 31.5727 175.888 31.3732 176.042 31.4941C176.277 31.6543 176.511 31.615 176.746 31.615C176.981 31.615 177.177 31.615 177.411 31.4941C177.569 31.3732 177.803 31.5727 177.999 31.3732C178.115 31.2552 178.388 31.4155 178.469 31.1736C178.861 31.1343 179.134 30.8954 179.407 30.6142C179.642 30.3754 179.838 30.0549 180.111 29.937C180.423 29.816 180.776 29.8977 181.127 29.8977C181.911 29.8977 182.692 29.8977 183.476 29.8977C183.669 30.1758 183.476 30.3754 183.357 30.5356C182.927 31.2552 182.538 31.9748 181.95 32.5735C181.284 33.2115 180.619 33.7708 179.68 34.049C179.407 34.1307 179.095 34.3695 178.78 34.4088C178.311 34.4905 177.803 34.6507 177.295 34.5691C176.865 34.5298 176.396 34.5691 175.965 34.5691C174.714 34.5298 173.538 34.1307 172.523 33.411C171.388 32.5735 170.411 31.5727 169.823 30.2544C169.392 29.3383 169.119 28.3798 169.119 27.3397C169.119 26.9013 169.157 26.4205 169.119 25.9821C169.08 25.1839 169.353 24.4643 169.627 23.784C170.138 22.5473 170.88 21.4286 171.896 20.6304C172.834 19.9108 173.814 19.2335 175.026 19.0733C175.222 18.8737 175.457 18.9523 175.653 18.913C175.888 18.8737 176.081 18.9523 176.315 18.7921C176.473 18.6741 176.826 18.6741 177.022 18.8314C177.138 18.913 177.295 18.913 177.411 18.913C178.273 18.8314 179.015 19.1912 179.758 19.5117C180.892 19.9501 181.754 20.8693 182.538 21.7884C183.123 22.3085 183.476 22.9858 183.788 23.7447Z" fill="white"/>
<path d="M44.2201 34.2911C44.6508 32.9336 45.1973 31.6939 45.6279 30.4149C45.9012 29.656 46.216 28.8971 46.5279 28.1805C46.7625 27.6211 46.9199 27.0618 47.1545 26.5024C47.3506 25.943 47.6238 25.423 47.8198 24.8636C48.2505 23.5454 48.8742 22.2664 49.2663 20.9088C49.4237 20.4311 49.6969 19.9503 49.8128 19.4333C49.8514 19.3123 49.9702 19.1914 50.1276 19.1914C50.8315 19.1914 51.574 19.1914 52.278 19.1914C52.4354 19.1914 52.5512 19.3123 52.5898 19.4333C52.866 20.5097 53.3739 21.5075 53.7244 22.5869C53.959 23.2672 54.1937 23.9445 54.4699 24.6248C54.8204 25.5016 55.1322 26.3815 55.4857 27.2613C55.6431 27.6604 55.8391 28.0595 55.9549 28.498C56.0737 28.9394 56.2668 29.3385 56.4242 29.7376C56.7361 30.5359 57.0509 31.3734 57.3628 32.1746C57.5974 32.731 57.7934 33.3327 58.0281 33.892C58.1469 34.2095 58.1053 34.2911 57.7548 34.2911C56.9321 34.2911 56.1123 34.2911 55.3282 34.2911C55.055 34.2911 54.9392 34.2095 54.859 33.9313C54.5857 33.0908 54.2739 32.2926 53.959 31.455C53.8432 31.1738 53.8432 31.1738 53.6086 31.1738C52.0047 31.1738 50.4009 31.1738 48.797 31.1738C48.4436 31.1738 48.4851 31.1738 48.2891 31.5729C47.9743 32.3742 47.6624 33.1724 47.3892 33.9706C47.3506 34.1309 47.2704 34.3304 46.9971 34.2911C46.0586 34.2488 45.1586 34.2911 44.2201 34.2911ZM51.1048 23.506C50.4781 25.1841 49.9316 26.702 49.3435 28.2984C50.5583 28.2984 51.6899 28.2984 52.8244 28.2984C52.278 26.702 51.7315 25.1841 51.1048 23.506Z" fill="white"/>
<path d="M73.832 34.291C72.8133 34.291 71.8747 34.291 70.9362 34.291C70.7015 34.291 70.6243 34.2094 70.5441 34.0098C70.3511 33.5321 70.1936 33.0514 69.9976 32.613C69.8402 32.1745 69.5669 31.7724 69.5669 31.2947C69.5669 31.0951 69.4125 31.1737 69.2937 31.1737C68.1591 31.1737 67.0245 31.1737 65.89 31.1737C65.3435 31.1737 64.794 31.1737 64.2089 31.1737C64.0515 31.1737 64.0129 31.2161 63.9743 31.4156C63.7782 32.0929 63.5436 32.7309 63.2704 33.4112C63.1515 33.6924 63.0743 34.0098 62.9555 34.3303C61.9784 34.3303 61.0012 34.3303 59.9438 34.3303C60.1399 33.6924 60.3745 33.0907 60.6091 32.4527C60.924 31.6938 61.1586 30.9349 61.4705 30.176C61.7823 29.417 62.017 28.6188 62.3318 27.8599C62.6437 27.1796 62.8397 26.463 63.1515 25.7827C63.4664 25.0238 63.701 24.2256 64.0129 23.4666C64.3247 22.7863 64.5208 22.0667 64.8356 21.3895C65.1088 20.8301 65.2663 20.2314 65.5009 19.6721C65.6553 19.2729 65.6553 19.2729 66.0088 19.2729C66.6741 19.2729 67.2978 19.2729 67.9631 19.2729C68.1205 19.2729 68.1591 19.3516 68.2363 19.4725C68.5898 19.9502 68.5126 20.5912 68.9016 21.0296C69.0205 21.8279 69.4125 22.5082 69.6858 23.2671C70.0748 24.3858 70.5441 25.4622 70.9362 26.5809C71.3668 27.7783 71.8747 28.9786 72.2668 30.2153C72.4628 30.8956 72.736 31.5335 73.0093 32.1745C73.2439 32.8125 73.4399 33.5321 73.832 34.291ZM66.8671 23.5846C66.7513 23.7055 66.6741 23.7841 66.6325 23.9444C66.4781 24.4644 66.282 24.9452 66.086 25.4229C65.7741 26.3028 65.5395 27.1796 65.1088 27.9808C65.0286 28.1381 65.1474 28.2983 65.3049 28.2983C66.282 28.2983 67.2592 28.2983 68.2363 28.2983C68.4324 28.2983 68.5126 28.1804 68.4324 27.9808C68.2363 27.4215 68.0017 26.8621 67.8087 26.3028C67.6512 25.822 67.4938 25.3443 67.2978 24.8635C67.182 24.4644 67.0632 24.026 66.8671 23.5846Z" fill="white"/>
<path d="M109.545 31.1738C107.864 31.1738 106.18 31.1738 104.498 31.1738C104.106 31.1738 104.148 31.1738 103.991 31.5729C103.679 32.4135 103.403 33.2117 103.091 34.0492C102.975 34.3304 102.975 34.3304 102.737 34.3304C101.879 34.3304 101.018 34.3304 100.195 34.3304C100.002 33.9706 100.314 33.6925 100.275 33.4113C100.899 32.2532 101.214 30.9743 101.721 29.7769C102.152 28.7368 102.503 27.6604 102.895 26.581C103.091 26.0217 103.325 25.5016 103.56 24.9453C103.872 24.1863 104.106 23.4274 104.421 22.6685C104.733 21.9096 104.968 21.1507 105.283 20.3918C105.321 20.2315 105.398 20.1106 105.437 19.9503C105.476 19.7115 105.594 19.4726 105.752 19.3123C105.868 19.1914 106.141 19.273 106.337 19.273C106.845 19.273 107.356 19.273 107.864 19.273C108.137 19.273 108.253 19.3516 108.333 19.6328C108.487 20.1106 108.683 20.549 108.879 21.0297C109.153 21.71 109.387 22.4266 109.663 23.1069C109.898 23.7449 110.21 24.3859 110.406 25.0632C110.679 25.8614 110.991 26.6203 111.267 27.4216C111.541 28.2591 111.93 29.0966 112.244 29.9372C112.518 30.6961 112.791 31.4157 113.064 32.1323C113.299 32.7733 113.533 33.4113 113.768 34.0492C113.81 34.1309 113.768 34.2095 113.768 34.3697C112.791 34.3697 111.891 34.3697 110.952 34.3697C110.798 34.3697 110.756 34.3304 110.679 34.1702C110.326 33.4899 110.133 32.7733 109.898 32.093C109.779 31.7332 109.583 31.4943 109.545 31.1738ZM106.845 23.627C106.26 25.2234 105.71 26.7413 105.125 28.3377C106.102 28.3377 107.079 28.3377 108.018 28.3377C108.214 28.3377 108.487 28.4587 108.606 28.2591C108.683 28.0988 108.529 27.86 108.449 27.6997C107.902 26.5417 107.629 25.302 107.121 24.144C107.041 23.9445 107.079 23.7449 106.845 23.627Z" fill="white"/>
<path d="M185.469 34.2914C185.861 33.6504 186.057 33.091 186.253 32.4924C186.449 31.933 186.642 31.3736 186.877 30.8143C187.346 29.6986 187.738 28.5375 188.208 27.3795C188.757 26.0612 189.146 24.6643 189.773 23.346C189.773 22.8683 190.046 22.5085 190.204 22.1094C190.319 21.7103 190.515 21.2688 190.673 20.8697C190.83 20.4706 190.907 20.0322 191.142 19.6331C191.415 19.1916 191.338 19.1523 191.769 19.1523C192.354 19.1523 192.942 19.1523 193.527 19.1523C193.723 19.1523 193.919 19.1916 193.958 19.3912C194.231 20.4706 194.742 21.4684 195.092 22.5478C195.327 23.2281 195.642 23.9054 195.876 24.5857C196.188 25.5442 196.58 26.4633 196.931 27.4218C197.204 28.1807 197.48 28.8973 197.754 29.6169C198.104 30.4575 198.377 31.295 198.731 32.1325C198.965 32.6919 199.161 33.2906 199.396 33.8499C199.512 34.1704 199.473 34.249 199.123 34.249C198.3 34.249 197.48 34.249 196.696 34.249C196.423 34.249 196.346 34.1704 196.227 33.8499C195.954 33.0124 195.642 32.2142 195.327 31.3736C195.25 31.1348 195.131 31.0955 194.896 31.0955C193.331 31.0955 191.769 31.0955 190.242 31.0955C189.892 31.0955 189.654 31.1741 189.696 31.5732C189.342 32.2928 189.069 33.0517 188.873 33.8499C188.796 34.1311 188.677 34.2097 188.326 34.2097C187.346 34.2914 186.488 34.2914 185.469 34.2914ZM192.473 23.5063C191.846 25.1844 191.3 26.7415 190.673 28.338C191.769 28.338 192.785 28.338 193.842 28.338C193.958 28.338 194.077 28.3803 194.192 28.2987C193.646 26.7022 193.058 25.1451 192.473 23.5063Z" fill="white"/>
<path d="M152.141 25.3443C153.864 25.3443 155.545 25.3443 157.268 25.3443C157.268 26.1425 157.268 26.9407 157.268 27.6997C157.268 27.8992 157.149 28.0201 156.914 28.0595C156.718 28.0595 156.484 28.0595 156.288 28.0595C154.918 28.0595 153.511 28.0595 152.103 28.0595C152.103 29.2568 152.103 30.4148 152.103 31.6152C153.784 31.6152 155.507 31.6152 157.226 31.6152C157.226 32.5313 157.226 33.4112 157.226 34.3303C154.568 34.3303 151.907 34.3303 149.21 34.3303C149.21 29.3384 149.21 24.3042 149.21 19.2729C151.868 19.2729 154.529 19.2729 157.226 19.2729C157.226 20.1498 157.226 21.0296 157.226 21.9488C155.507 21.9488 153.825 21.9488 152.103 21.9488C152.141 23.0252 152.141 24.1439 152.141 25.3443Z" fill="white"/>
<path d="M224 21.9096C222.277 21.9096 220.596 21.9096 218.877 21.9096C218.877 23.0253 218.877 24.144 218.877 25.302C220.558 25.302 222.277 25.302 224 25.302C224 26.1033 224 26.8199 224 27.5395C224 27.9386 223.923 28.0202 223.531 28.0202C222.004 28.0202 220.48 28.0202 218.915 28.0202L218.877 28.0595C218.877 28.0595 218.835 28.0989 218.835 28.1382C218.835 29.2569 218.835 30.4149 218.835 31.5729C219.5 31.5729 220.166 31.5729 220.792 31.5729C221.731 31.5729 222.631 31.5729 223.569 31.5729C223.881 31.5729 223.961 31.6939 223.961 31.9751C223.961 32.731 223.961 33.4899 223.961 34.2488C221.261 34.2488 218.6 34.2488 215.903 34.2488C215.903 29.2176 215.903 24.2257 215.903 19.1914C218.6 19.1914 221.261 19.1914 223.923 19.1914C224 20.1106 224 20.9511 224 21.9096Z" fill="white"/>
<path d="M124.683 19.2339C127.341 19.2339 129.964 19.2339 132.584 19.2339C132.584 20.1107 132.584 20.9906 132.584 21.9097C130.941 21.9097 129.26 21.9097 127.618 21.9097C127.618 23.0678 127.618 24.1865 127.618 25.3022C129.26 25.3022 130.902 25.3022 132.584 25.3022C132.664 26.2214 132.584 27.1012 132.622 28.0204C130.941 28.0204 129.299 28.0204 127.618 28.0204C127.618 29.2177 127.618 30.3758 127.618 31.5731C129.26 31.5731 130.902 31.5731 132.584 31.5731C132.584 32.4923 132.584 33.3721 132.584 34.2913C129.964 34.2913 127.341 34.2913 124.683 34.2913C124.683 29.257 124.683 24.2651 124.683 19.2339Z" fill="white"/>
<path d="M94.3289 25.6619C94.7596 24.4645 95.2675 23.3458 95.6595 22.1878C95.8555 21.6677 96.0486 21.1084 96.3248 20.6306C96.4793 20.3101 96.5595 19.911 96.7525 19.5905C96.9485 19.2337 96.9099 19.2337 97.2248 19.2337C98.1633 19.2337 99.0632 19.2337 100.118 19.2337C99.8444 19.5119 99.883 19.7901 99.7672 20.032C99.3365 20.8302 99.0217 21.6677 98.6712 22.469C98.1633 23.5847 97.694 24.7034 97.1832 25.8221C96.9872 26.2605 96.7941 26.702 96.5981 27.1404C96.402 27.5788 96.2832 28.0595 96.01 28.4587C95.8942 28.6582 95.8555 28.9394 95.8555 29.1783C95.8555 30.7747 95.8555 32.4135 95.8555 34.0099C95.8555 34.0916 95.8555 34.2095 95.8555 34.2911C94.8368 34.2911 93.8596 34.2911 92.8409 34.2911C92.7251 34.1309 92.8023 33.9706 92.8023 33.7711C92.8023 32.4528 92.7637 31.1345 92.8023 29.7769C92.8409 29.0573 92.6063 28.4194 92.3716 27.8207C91.8637 26.6203 91.2786 25.5016 90.7678 24.3043C90.4173 23.4667 90.0639 22.6685 89.7134 21.828C89.36 20.9904 88.9709 20.1499 88.6174 19.3123C88.6174 19.3123 88.6174 19.273 88.656 19.1914C89.6362 19.1914 90.6133 19.1914 91.6291 19.1914C91.7479 19.1914 91.7865 19.2337 91.8637 19.3517C92.1786 19.9927 92.3716 20.7092 92.6865 21.3502C92.9211 21.7887 92.9597 22.3087 93.2716 22.7471C93.4676 22.986 93.5062 23.3458 93.625 23.6663C93.821 24.3043 94.0557 24.9846 94.3289 25.6619Z" fill="white"/>
<path d="M142.364 34.2914C141.307 34.2914 140.33 34.2914 139.314 34.2914C139.314 33.9709 139.314 33.6111 139.314 33.2906C139.314 31.8937 139.314 30.4968 139.314 29.0969C139.314 28.8973 139.272 28.6978 139.195 28.4982C138.726 27.5004 138.295 26.4633 137.864 25.4232C137.475 24.5041 137.045 23.5849 136.653 22.6688C136.299 21.7889 135.871 20.909 135.479 20.0322C135.402 19.7903 135.245 19.5514 135.245 19.2733C135.322 19.113 135.479 19.1916 135.637 19.1916C136.418 19.1916 137.199 19.1916 138.022 19.1916C138.295 19.1916 138.414 19.2733 138.491 19.5514C138.764 20.3497 139.118 21.1086 139.43 21.9098C139.664 22.4692 139.822 23.0255 140.056 23.5849C140.33 24.2652 140.603 24.9032 140.876 25.6228C141.268 24.6643 141.66 23.7451 142.011 22.7867C142.403 21.7103 142.911 20.7095 143.225 19.5908C143.303 19.2733 143.418 19.234 143.733 19.234C144.672 19.234 145.572 19.234 146.588 19.234C146.392 19.7117 146.237 20.1108 146.041 20.5099C145.649 21.3081 145.299 22.1487 144.945 22.9469C144.71 23.467 144.399 23.987 144.203 24.5434C144.007 25.1027 143.695 25.5835 143.499 26.1035C143.184 26.9804 142.756 27.7786 142.403 28.6191C142.325 28.7794 142.364 28.9396 142.364 29.0969C142.364 30.8143 142.364 32.4923 142.364 34.2914Z" fill="white"/>
<path d="M108.879 47.0718C108.879 45.4723 108.879 44.0361 108.879 42.5969C109.31 42.5969 109.702 42.5969 110.133 42.5969C110.133 44.7951 110.133 46.9902 110.133 49.1883C110.091 49.1883 110.053 49.2276 110.014 49.2276C109.663 49.1883 109.31 49.3486 108.998 49.149C108.725 48.9495 108.567 48.6683 108.41 48.3901C108.175 48.0303 107.864 47.7098 107.629 47.3923C107.041 46.5518 106.376 45.7928 105.829 44.9553C105.752 44.8737 105.672 44.7951 105.556 44.5955C105.556 46.2313 105.556 47.7491 105.556 49.2669C105.202 49.2669 104.929 49.2669 104.617 49.2669C104.421 49.2669 104.302 49.149 104.302 48.9101C104.302 48.629 104.302 48.3901 104.302 48.1089C104.302 46.5125 104.302 44.916 104.302 43.3558C104.302 43.1986 104.302 43.0777 104.302 42.9174C104.302 42.6786 104.421 42.5969 104.617 42.5576C104.852 42.5576 105.087 42.5576 105.321 42.5576C105.437 42.5576 105.556 42.5969 105.594 42.7179C106.221 43.6763 107.002 44.5562 107.668 45.5147C108.06 45.9924 108.449 46.4731 108.879 47.0718Z" fill="white"/>
<path d="M69.3324 49.2279C69.3324 46.9511 69.3324 44.756 69.3324 42.5579C70.3511 42.5579 71.3283 42.4793 72.3441 42.5579C73.4014 42.6395 74.6934 43.3168 75.0439 44.7137C75.1627 45.1158 75.3171 45.4726 75.3171 45.8747C75.2785 46.6337 75.1211 47.3109 74.5746 47.9096C74.3786 48.1515 73.5975 48.9104 73.4014 48.9497C72.8935 49.0283 72.4243 49.3095 71.8362 49.2672C71.0164 49.1886 70.1937 49.2279 69.3324 49.2279ZM70.5858 48.1092C71.0937 48.1092 71.6015 48.1515 72.1094 48.1092C72.6203 48.0699 73.0896 47.7917 73.4786 47.4319C73.8321 47.1114 73.8707 46.5913 74.0281 46.1922C74.1053 45.9534 73.9865 45.6752 73.9093 45.394C73.7133 44.7137 73.4786 44.3569 72.8549 43.9971C72.6589 43.8762 72.5015 43.7159 72.2668 43.7159C71.6788 43.7159 71.1323 43.7159 70.5442 43.7159C70.5858 45.1944 70.5858 46.6337 70.5858 48.1092Z" fill="white"/>
<path d="M91.0823 46.7119C91.2783 47.1896 91.6288 47.5494 91.902 47.9485C92.1783 48.3507 92.4901 48.7075 92.7634 49.2275C92.3713 49.2275 91.9822 49.2275 91.5902 49.2275C91.4328 49.2275 91.3556 49.1096 91.2367 49.028C90.8863 48.7075 90.6902 48.3083 90.4556 47.9092C90.2982 47.6311 89.9863 47.4315 89.8705 47.0717C89.8289 46.9508 89.6745 46.8721 89.5171 46.9115C89.1636 46.9115 88.7745 46.9115 88.3825 46.9115C88.3825 47.6704 88.3825 48.39 88.3825 49.1489C87.9518 49.1489 87.5598 49.1489 87.1321 49.1489C87.1321 46.9508 87.1321 44.7556 87.1321 42.4789C87.6014 42.4789 88.0706 42.4789 88.5785 42.4789C89.2052 42.4789 89.8289 42.4396 90.4556 42.4789C91.2783 42.5182 91.9436 42.878 92.2941 43.6762C92.6862 44.4745 92.4901 45.5539 91.9436 45.9923C91.7862 46.1132 91.709 46.2735 91.5516 46.3914C91.4328 46.591 91.2367 46.6333 91.0823 46.7119ZM88.2667 45.832C89.0092 45.832 89.6745 45.832 90.3398 45.832C90.8091 45.832 91.1209 45.5539 91.2783 45.1155C91.3942 44.7556 91.4328 44.3565 91.0437 44.0753C90.8863 43.9544 90.8091 43.7155 90.5744 43.7155C89.8289 43.7155 89.0478 43.7155 88.3053 43.7155C88.3053 43.7972 88.2667 43.8365 88.2667 43.8758C88.2667 44.4745 88.2667 45.1155 88.2667 45.832Z" fill="white"/>
<path d="M152.222 49.388C150.891 49.267 149.834 48.75 149.168 47.5496C149.014 47.2321 148.856 46.9116 148.895 46.5518C148.895 46.3916 148.934 46.2313 148.818 46.0741C148.741 45.9925 148.741 45.8322 148.818 45.7143C148.856 45.675 148.895 45.5934 148.895 45.5541C149.014 43.876 150.03 42.9961 151.322 42.597C152.807 42.1586 154.256 42.7573 155.114 43.9153C155.349 44.2751 155.664 44.6742 155.584 45.1943C155.545 45.3938 155.741 45.5148 155.741 45.7143C155.741 46.951 155.153 48.4295 153.864 49.0281C153.315 49.1884 152.768 49.3486 152.222 49.388ZM152.26 43.5555C151.126 43.5555 150.579 44.1148 150.187 45.034C150.11 45.1943 150.226 45.4724 150.11 45.6327C149.991 45.8322 149.991 45.9925 150.11 46.192C150.226 46.3523 150.11 46.6335 150.226 46.8723C150.499 47.4317 150.891 47.8701 151.437 48.109C152.141 48.3902 152.845 48.3509 153.433 47.9487C154.06 47.5103 154.764 46.3523 154.295 45.1943C153.941 44.1148 153.315 43.5555 152.26 43.5555Z" fill="white"/>
<path d="M181.519 43.3562C181.361 43.7161 180.972 43.837 180.892 44.2361C180.542 44.2754 180.384 43.7977 180.034 43.837C179.484 43.4379 178.861 43.4772 178.273 43.7161C177.881 43.8763 177.607 44.1968 177.295 44.5566C177.061 44.8348 176.981 45.1946 176.903 45.5151C176.826 45.8326 176.746 46.1924 177.022 46.5129C176.942 47.1901 177.491 47.5499 177.881 47.9098C178.234 48.1909 178.703 48.3512 179.211 48.2696C179.484 48.2303 179.758 48.1909 180.034 48.1093C180.464 47.9491 180.619 47.7102 180.619 47.2325C180.619 47.0329 180.619 46.8334 180.619 46.5915C180.072 46.5915 179.523 46.5915 178.976 46.5915C178.976 46.2317 178.976 45.9142 178.976 45.5937C179.876 45.5937 180.776 45.5937 181.754 45.5937C181.754 46.3919 181.715 47.1901 181.754 47.9914C181.754 48.3512 181.638 48.5901 181.403 48.6687C180.542 49.1101 179.68 49.5092 178.703 49.3883C177.999 49.3097 177.334 49.0678 176.788 48.6294C176.315 48.2696 175.965 47.7495 175.807 47.1901C175.573 46.3526 175.496 45.5151 175.807 44.6352C176.122 43.7554 176.746 43.0781 177.53 42.679C178.234 42.3192 179.054 42.2375 179.915 42.4794C180.58 42.7183 181.127 42.8785 181.519 43.3562Z" fill="white"/>
<path d="M113.533 42.5576C115.06 42.5576 116.587 42.5576 118.072 42.5576C118.425 42.5576 118.502 42.6786 118.502 42.996C118.502 43.1563 118.541 43.2772 118.502 43.4375C118.464 43.5554 118.387 43.6763 118.229 43.7156C118.11 43.7156 117.995 43.7156 117.876 43.7156C116.86 43.7156 115.841 43.7156 114.787 43.7156C114.787 44.2357 114.787 44.7134 114.787 45.2728C115.803 45.2728 116.86 45.2728 117.914 45.2728C117.914 45.6749 117.914 46.0317 117.914 46.4338C116.86 46.4338 115.841 46.4338 114.787 46.4338C114.787 46.9902 114.787 47.5495 114.787 48.1512C116.037 48.1512 117.252 48.1512 118.502 48.1512C118.502 48.508 118.502 48.8678 118.502 49.2276C118.502 49.2276 118.502 49.2276 118.464 49.2669C118.464 49.2669 118.425 49.3093 118.387 49.3093C116.783 49.3093 115.137 49.3093 113.495 49.3093C113.533 47.0325 113.533 44.8344 113.533 42.5576Z" fill="white"/>
<path d="M186.253 45.2337C187.308 45.2337 188.326 45.2337 189.342 45.2337C189.342 44.3569 189.342 43.477 189.342 42.5579C189.654 42.5579 189.969 42.5579 190.242 42.5579C190.477 42.5579 190.595 42.6788 190.595 42.957C190.595 43.3168 190.595 43.7159 190.595 44.0757C190.595 45.5542 190.595 47.0328 190.595 48.4689C190.595 49.2279 190.515 49.2672 189.811 49.2279C189.654 49.2279 189.538 49.2279 189.342 49.2279C189.342 48.2694 189.342 47.3502 189.342 46.3918C188.288 46.3918 187.308 46.3918 186.253 46.3918C186.253 47.3109 186.253 48.2694 186.253 49.1886C185.861 49.1886 185.508 49.1886 185.157 49.1886C185.157 46.9904 185.157 44.756 185.157 42.5186C185.508 42.5186 185.861 42.5186 186.215 42.5186C186.253 43.4377 186.253 44.3146 186.253 45.2337Z" fill="white"/>
<path d="M97.0287 45.7535C97.5752 45.1156 98.0831 44.6741 98.5137 44.1148C98.9058 43.5554 99.4523 43.117 99.9215 42.6393C100.002 42.5576 100.079 42.5576 100.156 42.5576C100.587 42.5576 101.018 42.5576 101.525 42.5576C100.625 43.4768 99.8443 44.275 99.0216 45.1156C98.787 45.3544 98.7484 45.5147 98.983 45.7535C99.3364 46.1526 99.6483 46.6334 99.9602 47.0325C100.471 47.7098 100.979 48.3508 101.487 49.0281C101.525 49.0674 101.487 49.1097 101.487 49.2276C101.095 49.2276 100.664 49.2276 100.275 49.2276C100.118 49.2276 100.04 49.1097 99.9602 48.9888C99.6483 48.5503 99.3364 48.1512 99.0216 47.7491C98.787 47.4316 98.5523 47.0718 98.3177 46.7906C98.1632 46.6334 98.2019 46.3915 98.0058 46.3129C97.9672 46.2313 97.9286 46.2736 97.887 46.3129C97.6138 46.5911 97.2247 46.833 97.0673 47.1897C96.9099 47.5495 97.0287 47.991 97.0287 48.3901C97.0287 48.6683 97.0287 48.9495 97.0287 49.2276C96.598 49.2276 96.206 49.2276 95.8139 49.2276C95.8139 46.9902 95.8139 44.7951 95.8139 42.5576C96.206 42.5576 96.598 42.5576 97.0287 42.5576C97.0287 43.5977 97.0287 44.6348 97.0287 45.7535Z" fill="white"/>
<path d="M84.3552 49.2276C83.8443 49.2276 83.4938 49.2276 83.179 49.2276C82.9859 49.2276 82.8285 49.1097 82.8285 48.9495C82.8285 48.7076 82.6711 48.5503 82.5939 48.3508C82.5167 48.1089 82.4751 47.7914 82.3206 47.7098C82.1246 47.5919 81.8098 47.6705 81.5752 47.6705C80.8712 47.6705 80.1287 47.6705 79.4248 47.6705C79.2674 47.6705 79.1902 47.7098 79.1902 47.9093C79.1516 48.3085 78.7981 48.629 78.7209 49.0674C78.7209 49.1883 78.5635 49.2669 78.409 49.2669C78.0942 49.2276 77.7823 49.2669 77.3517 49.2669C77.7437 48.4294 78.1328 47.6312 78.4476 46.833C78.7595 45.9924 79.1902 45.1549 79.4634 44.275C79.5436 44.0361 79.6981 43.7973 79.8169 43.5554C79.8941 43.4375 79.9713 43.2772 79.9713 43.1986C79.9713 42.9567 80.1287 42.7572 80.2089 42.5576C80.5594 42.5576 80.9514 42.5576 81.3019 42.5576C81.3821 42.5576 81.3821 42.6393 81.4207 42.7179C81.8098 43.5554 82.2018 44.4353 82.5553 45.3151C82.7097 45.7142 82.9058 46.074 83.0632 46.4338C83.3364 47.0325 83.5711 47.6312 83.8443 48.2298C84.0017 48.5503 84.0403 48.8678 84.3552 49.2276ZM80.794 43.9545C80.4436 44.8344 80.0901 45.6749 79.7367 46.5125C80.4436 46.5125 81.1475 46.5125 81.89 46.5125C81.5365 45.6326 81.2247 44.7951 80.794 43.9545Z" fill="white"/>
<path d="M121.164 48.1512C121.437 47.87 121.671 47.6311 121.906 47.3922C122.375 47.6704 122.806 47.9909 123.353 48.1512C123.86 48.3084 124.291 48.1905 124.722 48.0695C125.075 47.9486 125.152 47.3106 124.918 46.9901C124.683 46.6726 124.33 46.591 123.979 46.5124C123.391 46.3914 122.845 46.2735 122.337 45.953C121.671 45.5932 121.437 45.0732 121.437 44.3566C121.437 43.6763 121.749 43.1985 122.337 42.8387C123.549 42.0798 124.645 42.4396 125.74 43.0383C125.856 43.0776 125.895 43.1985 125.975 43.2772C126.052 43.3558 126.052 43.4374 125.975 43.516C125.74 43.7156 125.74 44.0754 125.387 44.1963C124.879 43.8365 124.291 43.516 123.587 43.516C123.275 43.516 123.041 43.6763 122.845 43.8758C122.649 44.0754 122.649 44.5138 122.883 44.7557C123.157 45.0732 123.587 45.1155 123.941 45.2334C124.448 45.3544 124.918 45.5539 125.387 45.7535C126.052 46.074 126.483 46.9901 126.326 47.6311C126.21 48.0302 126.091 48.4686 125.74 48.7075C125.426 48.9494 125.114 49.2276 124.645 49.2276C124.33 49.2276 123.979 49.3878 123.667 49.3485C123.353 49.2669 123.041 49.2669 122.767 49.1489C122.533 49.0673 122.257 48.9887 122.064 48.8677C121.749 48.6682 121.398 48.5079 121.164 48.1512Z" fill="white"/>
<path d="M131.645 42.3975C132.194 42.4398 132.898 42.6393 133.564 43.0778C133.757 43.238 133.718 43.3559 133.679 43.4769C133.564 43.6371 133.445 43.7974 133.329 43.9969C133.172 44.1965 133.133 44.1965 132.818 44.0362C132.31 43.755 131.764 43.4769 131.137 43.5555C130.629 43.5978 130.314 43.9969 130.356 44.4747C130.395 44.7558 130.591 44.8738 130.825 44.9947C131.256 45.2336 131.725 45.2729 132.194 45.3938C132.818 45.5934 133.406 45.8746 133.798 46.4339C134.033 46.833 134.11 47.3108 133.953 47.7915C133.718 48.629 133.172 49.0282 132.349 49.267C131.372 49.5875 130.041 48.9889 129.299 48.629C129.18 48.5897 129.141 48.4688 129.064 48.3902C129.025 48.3509 128.987 48.2692 128.987 48.2299C129.141 47.9094 129.337 47.6313 129.61 47.4317L129.691 47.5103C129.964 47.5496 130.121 47.8308 130.356 47.9487C130.825 48.1513 131.256 48.3085 131.764 48.3085C131.998 48.3085 132.153 48.0304 132.387 48.1513C132.78 47.9094 132.857 47.3924 132.545 47.0326C132.194 46.6335 131.684 46.5912 131.256 46.4732C130.784 46.313 130.356 46.192 129.887 45.8746C129.18 45.3938 128.987 44.7952 129.221 43.9969C129.337 43.6371 129.417 43.3166 129.729 43.0778C130.198 42.597 130.825 42.3975 131.645 42.3975Z" fill="white"/>
<path d="M146.51 43.6763C145.845 43.6763 145.18 43.6763 144.476 43.6763C144.437 44.5955 144.476 45.5147 144.437 46.4338C144.437 47.35 144.437 48.2691 144.437 49.2276C144.045 49.2276 143.653 49.2276 143.225 49.2276C143.184 48.3508 143.225 47.4316 143.184 46.5125C143.184 45.5933 143.184 44.6741 143.184 43.7156C142.521 43.7156 141.856 43.7156 141.111 43.7156C141.072 43.3165 141.111 42.9567 141.072 42.5576C142.911 42.5576 144.672 42.5576 146.472 42.5576C146.51 42.9567 146.51 43.3165 146.51 43.6763Z" fill="white"/>
<path d="M198.808 42.5579C198.808 42.9177 198.808 43.2775 198.808 43.6373C198.184 43.6373 197.557 43.6373 196.892 43.6373C196.892 45.4726 196.892 47.3109 196.892 49.1886C196.461 49.1886 196.069 49.1886 195.642 49.1886C195.642 47.3926 195.642 45.5542 195.642 43.6766C194.935 43.6766 194.273 43.6766 193.527 43.6766C193.488 43.2775 193.527 42.9177 193.488 42.5186C195.25 42.5579 197.008 42.5579 198.808 42.5579Z" fill="white"/>
<path d="M163.565 42.5576C163.918 42.5576 164.269 42.5576 164.622 42.5576C164.622 44.396 164.622 46.192 164.622 48.0696C165.795 48.0696 166.93 48.0696 168.103 48.0696C168.103 48.4687 168.103 48.8285 168.103 49.1883C166.615 49.1883 165.091 49.1883 163.565 49.1883C163.565 47.0325 163.565 44.8344 163.565 42.5576Z" fill="white"/>
<path d="M171.192 42.5576C171.584 42.5576 171.934 42.5576 172.288 42.5576C172.288 44.7951 172.288 46.9902 172.288 49.2276C171.934 49.2276 171.584 49.2276 171.23 49.2276C171.115 48.8678 171.192 48.5503 171.192 48.1905C171.192 46.4731 171.192 44.7951 171.192 43.0777C171.192 42.8781 171.192 42.7179 171.192 42.5576Z" fill="white"/>
</svg>
