<svg width="224" height="41" viewBox="0 0 224 41" fill="none" xmlns="http://www.w3.org/2000/svg">
<path d="M23.5277 36.9844C23.3703 36.7455 23.0585 36.6669 22.8238 36.5066C22.0813 35.9866 21.2972 35.5482 20.5933 35.0281C20.5161 34.9495 20.3973 34.9102 20.2814 34.8679C19.8894 34.7076 19.4973 34.4687 19.1855 34.1906C18.8736 33.9487 18.5202 33.7098 18.1697 33.5103C17.3084 32.9902 16.447 32.4339 15.5857 31.8745C14.9234 31.4331 14.2195 30.9947 13.5542 30.5562C13.0047 30.2357 12.4582 29.8759 11.9087 29.5161C11.3236 29.1563 10.7356 28.7572 10.1504 28.3581C9.52376 27.959 8.89707 27.5206 8.23177 27.1608C7.8813 26.9612 7.56944 26.7193 7.216 26.4805C6.63089 26.1207 6.08142 25.7609 5.49632 25.4041C5.18149 25.2045 4.86963 25.0019 4.5548 24.8024C4.08552 24.5242 3.65783 24.2037 3.18855 23.9255C2.56186 23.5264 1.93517 23.1666 1.35007 22.7252C0.996625 22.4863 0.723376 22.2082 0.52735 21.8483C0.369935 21.5672 0.17391 21.289 0.135298 20.9685C0.135298 20.9292 0.0966867 20.9292 0.0966867 20.8899C0.135298 20.5301 -0.060728 20.2096 0.0194639 19.8498C0.135298 19.2904 0.21549 18.731 0.52735 18.2533C0.723376 17.9328 0.958014 17.6153 1.26987 17.3735C1.62331 17.0953 2.0124 16.8957 2.36584 16.6569C2.71928 16.415 3.06975 16.2154 3.42319 15.9766C4.0083 15.5775 4.59638 15.2176 5.18148 14.8185C5.80817 14.3801 6.47347 14.0203 7.10016 13.6212C7.41202 13.4216 7.68527 13.2221 7.99713 13.0195C8.46938 12.7413 8.93865 12.4632 9.40793 12.1427C10.1504 11.6226 10.893 11.1449 11.6741 10.7035C12.4582 10.2257 13.2393 9.70567 14.0234 9.22795C14.6086 8.86814 15.2352 8.46903 15.7817 8.0669C16.3312 7.71011 16.8777 7.38962 17.4242 7.02981C17.7776 6.79095 18.0895 6.54906 18.4816 6.34951C18.9122 6.14995 19.2627 5.79014 19.6547 5.55128C20.0468 5.31242 20.4388 5.03123 20.8279 4.79237C21.1814 4.5535 21.4932 4.35395 21.8467 4.15439C22.1971 3.95484 22.5506 3.71597 22.8624 3.47409C23.0585 3.31384 23.2931 3.19592 23.5277 3.07497C23.605 3.03567 23.605 2.99636 23.5664 2.87542C23.4089 2.51561 23.1743 2.19814 22.9812 1.83833C22.8624 1.63878 22.8238 1.43922 22.6278 1.27897C22.5892 1.23967 22.5892 1.11872 22.6664 1.07942C23.0971 0.83753 23.5277 0.520055 23.997 0.278169C24.3505 0.120943 24.7009 0 25.093 0C25.5236 0 25.9127 1.1534e-08 26.3048 0.160249C26.5394 0.320498 26.8929 0.480748 27.2047 0.680304C27.674 0.997779 27.9472 1.47853 28.1819 1.99858C28.3007 2.23744 28.3779 2.51561 28.4165 2.83611C28.4165 3.03567 28.5353 3.23522 28.4967 3.43478C28.3779 4.07275 28.3007 4.67445 27.9472 5.23381C27.6354 5.67223 27.2433 6.07134 26.8127 6.34951C26.0315 6.83025 25.289 7.35031 24.5049 7.82803C23.801 8.26645 23.0971 8.70789 22.4318 9.14631C22.0813 9.34587 21.7279 9.58473 21.416 9.78429C21.1012 9.98687 20.7507 10.1864 20.4388 10.4253C20.0854 10.6641 19.7735 10.8637 19.4201 11.1026C18.8736 11.4624 18.3241 11.8615 17.739 12.2213C17.1896 12.5418 16.6431 12.9409 16.0966 13.2614C15.7045 13.5003 15.3125 13.7784 14.9234 14.0203C14.4541 14.3378 13.9819 14.619 13.5126 14.8972C12.7701 15.3779 11.9889 15.8556 11.2464 16.3364C10.7771 16.6569 10.2663 16.935 9.79701 17.2555C9.36634 17.573 8.97726 17.9328 8.78124 18.4136C8.58521 18.8127 8.38918 19.2511 8.4278 19.7318C8.4278 19.8498 8.4278 19.9314 8.35057 20.0493C8.27335 20.131 8.46938 20.2489 8.4278 20.4091C8.38918 20.8899 8.5466 21.289 8.78124 21.6881C9.0931 22.2475 9.48515 22.7252 10.0703 23.0457C10.3851 23.2059 10.6969 23.4448 10.9702 23.6444C11.4395 23.9255 11.9087 24.2037 12.381 24.5242C13.1235 25.0443 13.9046 25.4827 14.6472 25.9604C15.0392 26.2023 15.3927 26.4805 15.8204 26.7193C16.2124 26.9612 16.6045 27.2394 16.9965 27.4782C17.7004 27.9197 18.4043 28.3581 19.1082 28.8389C19.4587 29.0777 19.8122 29.3166 20.1626 29.5554C20.6319 29.8366 21.0626 30.1571 21.5318 30.4353C22.3546 30.9947 23.2159 31.5147 24.0742 32.0741C24.6237 32.4339 25.1702 32.7514 25.7197 33.1112C26.2276 33.3924 26.6968 33.7098 27.1661 34.0696C27.4394 34.2692 27.7126 34.5504 27.9086 34.8286C28.2621 35.3093 28.3779 35.6268 28.4165 36.1861C28.4551 36.3857 28.5353 36.5852 28.4967 36.7848C28.4551 37.1053 28.4165 37.4258 28.3007 37.704C28.1819 38.0245 28.0274 38.345 27.8314 38.6624C27.4007 39.3427 26.7741 39.7026 26.0701 39.9021C25.6009 40.02 25.1316 40.1803 24.6623 39.9414C24.1158 39.9414 23.6852 39.6209 23.2159 39.3427C23.0199 39.2218 22.8238 39.1039 22.6278 38.9829C22.4318 38.862 22.4318 38.862 22.5506 38.7017C22.7852 38.345 22.9812 37.9428 23.2159 37.586C23.3317 37.3049 23.4089 37.1446 23.5277 36.9844Z" fill="#964734"/>
<path d="M25.993 18.4528C26.1475 19.1331 26.0702 19.8104 26.1089 20.53C26.1089 20.7688 25.993 21.0077 25.993 21.2496C25.993 21.4884 26.0702 21.7273 25.9128 21.9662C25.993 22.2474 25.797 22.4862 25.8356 22.7674C25.8742 22.9277 25.7584 23.0063 25.7198 23.1272C25.5624 23.9648 25.3277 24.8023 25.0129 25.6035C24.7396 26.2808 24.4278 26.9611 24.1159 27.6384C23.8397 28.1978 23.9199 28.1191 23.409 27.7986C23.1744 27.6384 22.9012 27.5205 22.6665 27.3602C22.12 27.0004 21.5319 26.7192 20.9468 26.4018C20.3974 26.0813 19.8123 25.7608 19.2628 25.4433C19.0282 25.0835 18.6777 24.8023 18.6777 24.2852C18.6777 24.125 18.6391 23.9254 18.7163 23.7652C18.8351 23.5263 18.9895 23.4054 19.2628 23.3268C19.735 23.1665 20.1627 23.0063 20.5548 22.7251C21.2201 22.2081 21.6507 21.6094 21.8854 20.7688C22.0012 20.3697 22.0012 19.9313 21.9626 19.5322C21.8854 18.8912 21.6507 18.3318 21.2587 17.8148C20.8666 17.2554 20.1241 16.8563 19.539 16.6144C19.3816 16.5358 19.1856 16.5751 19.0697 16.4149C18.9123 16.2546 18.7935 15.9765 18.8351 15.7769C18.8737 15.6167 18.8351 15.4957 18.9123 15.3385C19.1083 14.9394 19.343 14.6189 19.6935 14.4193C20.2429 14.0595 20.7894 13.6997 21.3775 13.3399C22.0814 12.8622 22.8239 12.4207 23.5278 11.943C23.6466 11.8614 23.8011 11.8614 23.8397 11.9823C23.8813 12.1033 23.9971 12.1819 24.0357 12.3028C24.2704 12.8622 24.6238 13.3792 24.8584 13.9809C25.0545 14.4979 25.2891 15.018 25.4436 15.5774C25.5237 15.8979 25.6782 16.176 25.6782 16.5358C25.8356 16.6568 25.7198 16.8956 25.8356 17.0559C25.9128 17.1738 25.7584 17.4157 25.9544 17.5729C25.8742 17.7725 26.0702 18.093 25.993 18.4528Z" fill="#964734"/>
<path d="M36.4357 29.2381C36.4743 29.8368 35.8892 30.3961 35.3397 30.3145C35.1467 30.2752 34.9892 30.2359 34.8318 30.1149C34.2853 29.7158 33.7774 29.356 33.228 28.9962C32.6815 28.6394 32.132 28.2796 31.6241 27.9198C31.0776 27.56 30.5697 27.2002 30.0203 26.8404C29.9431 26.8011 29.8658 26.7618 29.9431 26.6408C30.2549 26.0815 30.4509 25.4828 30.6856 24.8841C30.7242 24.7239 30.7242 24.8025 30.843 24.8448C31.235 25.0021 31.5855 25.2833 31.939 25.5221C32.8775 26.1208 33.7774 26.7618 34.716 27.3998C35.1467 27.7203 35.5744 27.9984 36.0436 28.2796C36.2783 28.5185 36.4357 28.839 36.4357 29.2381Z" fill="#964734"/>
<path d="M36.4359 10.8244C36.3973 11.1026 36.2785 11.3838 35.9666 11.6226C34.8707 12.3815 33.7361 13.1404 32.6431 13.8994C32.1323 14.2199 31.663 14.5797 31.1551 14.9395C31.0779 15.0181 30.9591 15.0181 30.8818 15.0967C30.8432 15.139 30.7244 15.139 30.6858 14.9788C30.57 14.619 30.4898 14.2592 30.2938 13.9387C30.1779 13.7391 30.1779 13.5003 30.0205 13.3007C29.9433 13.2221 30.0205 13.0618 30.1393 13.0195C30.6858 12.702 31.1551 12.3029 31.7046 11.9824C32.4471 11.5017 33.1896 10.9453 33.9707 10.4646C34.3628 10.2257 34.6747 9.90522 35.1053 9.74497C35.34 9.66636 35.6548 9.66636 35.8508 9.78428C36.0855 9.86592 36.2399 10.1048 36.3973 10.3043C36.4745 10.386 36.4359 10.5855 36.4359 10.8244Z" fill="#964734"/>
<path d="M31.4696 21.0079C31.4696 20.2913 31.4696 19.611 31.4696 18.8914C31.624 18.8914 31.7429 18.8914 31.8973 18.8914C33.7774 18.8914 35.6931 18.8914 37.5702 18.8914C37.9622 18.8914 38.3929 19.0909 38.5889 19.6503C38.7047 20.0101 38.6275 20.3699 38.3929 20.6511C38.1969 20.8899 37.9236 21.0079 37.6088 21.0079C35.5743 21.0079 33.5427 21.0079 31.4696 21.0079Z" fill="#964734"/>
<path d="M82.986 14.4981C83.3751 15.0574 83.7671 15.5775 84.079 16.1368C84.4324 16.7748 84.8631 17.3342 85.2136 17.9328C85.6442 18.6524 86.0749 19.3721 86.5828 20.0493C86.663 20.1703 86.5828 20.2912 86.4669 20.2912C85.4096 20.2912 84.3938 20.2912 83.3365 20.2912C83.1404 20.2912 83.0632 20.1703 82.986 20.01C82.4365 18.9729 81.8514 17.9752 81.3406 16.9351C80.8713 16.0552 80.3248 15.1784 79.9327 14.2592C79.8555 14.0596 79.6595 13.9387 79.5436 13.7391C79.5436 15.898 79.5436 18.0538 79.5436 20.2489C78.5249 20.3305 77.5091 20.2489 76.4518 20.2912C76.4518 20.0493 76.4518 19.8105 76.4518 19.5716C76.4518 15.0181 76.4518 10.4646 76.4518 5.91111C76.4518 5.75086 76.4518 5.63294 76.4518 5.47269C76.4518 5.15219 76.5706 5.03125 76.8438 5.03125C78.0556 5.03125 79.309 5.03125 80.5208 5.03125C80.9901 5.23383 81.498 5.15219 82.0059 5.1915C82.3593 5.23383 82.6712 5.39105 83.0246 5.39105C83.6097 5.43338 84.1206 5.75086 84.5898 6.03205C85.3324 6.50978 86.2323 7.58919 86.3867 8.70792C86.5055 9.62708 86.6214 10.7428 86.3481 11.4231C86.1521 11.9824 85.9175 12.5418 85.4482 12.9802C84.9789 13.4217 84.5483 13.9387 83.883 14.1383C83.5711 14.2985 83.2978 14.4194 82.986 14.4981ZM79.3476 12.6204C79.6595 12.6204 79.8941 12.5811 80.1674 12.6204C80.4436 12.6628 80.6782 12.4632 80.9515 12.4632C81.6168 12.5025 82.2019 12.2213 82.7098 11.9038C83.2206 11.5833 83.5325 11.0633 83.4939 10.4253C83.4939 10.1441 83.4939 9.86594 83.4939 9.58475C83.4939 9.46683 83.4939 9.3852 83.4553 9.26728C83.1404 8.38742 82.4365 7.98831 81.6168 7.86736C80.8713 7.74944 80.0901 7.82806 79.309 7.82806C79.3476 9.3852 79.3476 10.9847 79.3476 12.6204Z" fill="#262221"/>
<path d="M205.107 20.291C204.089 20.291 203.15 20.291 202.173 20.291C202.173 15.2174 202.173 10.1862 202.173 5.11263C202.289 4.99169 202.485 5.07333 202.681 5.07333C203.542 5.07333 204.403 5.031 205.262 5.07333C206.046 5.11263 206.866 5.19125 207.65 5.23358C208.158 5.27288 208.704 5.3908 209.215 5.59036C210.347 6.0318 210.973 6.54883 211.523 7.54963C211.835 8.1483 212.146 8.74697 212.031 9.46658C211.992 9.70544 212.342 9.905 212.108 10.1439C211.95 10.3434 212.031 10.5853 212.031 10.8242C212.031 11.1023 211.796 11.2626 211.873 11.5438C211.523 12.3027 211.208 13.0616 210.504 13.5786C209.996 13.9384 209.408 14.2196 208.823 14.4192C208.627 14.4978 208.627 14.5794 208.746 14.6974C209.173 15.2174 209.527 15.8554 209.877 16.4148C210.231 17.0134 210.623 17.5728 210.935 18.1745C211.288 18.8124 211.716 19.4111 212.146 20.0098C212.185 20.0491 212.146 20.0914 212.185 20.2093C211.639 20.3303 211.053 20.2486 210.504 20.2486C209.919 20.2486 209.331 20.2486 208.784 20.2486C208.315 19.6107 208.039 18.8911 207.65 18.2138C207.335 17.6937 207.062 17.1344 206.75 16.6143C206.358 15.8554 205.966 15.0965 205.496 14.3799C205.342 14.138 205.262 13.8598 205.069 13.4607C205.107 15.8161 205.107 18.0142 205.107 20.291ZM205.107 12.6202C205.419 12.6202 205.692 12.5809 205.927 12.6202C206.2 12.6625 206.435 12.4206 206.711 12.4629C206.984 12.5022 207.18 12.342 207.415 12.342C207.846 12.3027 208.158 12.1031 208.469 11.8219C208.861 11.4621 209.173 11.0237 209.173 10.4251C209.527 9.86569 209.173 9.38495 209.019 8.90722C208.9 8.58672 208.588 8.26622 208.273 8.109C207.962 7.98805 207.65 7.8278 207.296 7.7885C206.592 7.74919 205.888 7.7885 205.146 7.7885C205.107 9.38494 205.107 10.9844 205.107 12.6202Z" fill="#262221"/>
<path d="M183.788 9.74492C182.576 9.74492 181.442 9.74492 180.307 9.74492C180.15 9.74492 180.15 9.66631 180.072 9.58467C179.484 8.86808 178.78 8.42664 177.881 8.18778C177.215 7.98822 176.553 8.14847 175.926 8.06684C175.573 8.30872 175.142 8.22709 174.753 8.46897C174.4 8.70783 174.049 8.9467 173.734 9.22789C173.03 9.82656 172.638 10.6248 172.365 11.5016C172.326 11.5833 172.326 11.6619 172.288 11.7435C172.288 11.9824 172.249 12.2212 172.169 12.4631C172.092 12.702 172.092 13.0618 172.288 13.3006C172.211 13.7784 172.404 14.1805 172.561 14.6189C172.834 15.4171 173.304 16.0975 173.969 16.6145C174.4 16.9743 174.869 17.2948 175.418 17.3341C175.611 17.573 175.888 17.3734 176.042 17.4943C176.277 17.6546 176.511 17.6153 176.746 17.6153C176.981 17.6153 177.177 17.6153 177.411 17.4943C177.569 17.3734 177.803 17.573 177.999 17.3734C178.115 17.2555 178.388 17.4157 178.469 17.1738C178.861 17.1345 179.134 16.8957 179.407 16.6145C179.642 16.3756 179.838 16.0551 180.111 15.9372C180.423 15.8163 180.776 15.8979 181.127 15.8979C181.911 15.8979 182.692 15.8979 183.476 15.8979C183.669 16.1761 183.476 16.3756 183.357 16.5359C182.927 17.2555 182.538 17.9751 181.95 18.5738C181.284 19.2117 180.619 19.7711 179.68 20.0493C179.407 20.1309 179.095 20.3698 178.78 20.4091C178.311 20.4907 177.803 20.651 177.295 20.5693C176.865 20.53 176.396 20.5693 175.965 20.5693C174.714 20.53 173.538 20.1309 172.523 19.4113C171.388 18.5738 170.411 17.573 169.823 16.2547C169.392 15.3385 169.119 14.3801 169.119 13.34C169.119 12.9015 169.157 12.4208 169.119 11.9824C169.08 11.1841 169.353 10.4645 169.627 9.78423C170.138 8.54759 170.88 7.42886 171.896 6.63064C172.834 5.91103 173.814 5.23375 175.026 5.0735C175.222 4.87394 175.457 4.95256 175.653 4.91325C175.888 4.87394 176.081 4.95256 176.315 4.79231C176.473 4.67439 176.826 4.67439 177.022 4.83161C177.138 4.91325 177.295 4.91325 177.411 4.91325C178.273 4.83161 179.015 5.19142 179.758 5.51192C180.892 5.95034 181.754 6.8695 182.538 7.78867C183.123 8.30872 183.476 8.986 183.788 9.74492Z" fill="#262221"/>
<path d="M44.2201 20.2914C44.6508 18.9338 45.1973 17.6941 45.6279 16.4152C45.9012 15.6562 46.216 14.8973 46.5279 14.1807C46.7625 13.6214 46.9199 13.062 47.1545 12.5027C47.3506 11.9433 47.6238 11.4232 47.8198 10.8639C48.2505 9.5456 48.8742 8.26663 49.2663 6.90904C49.4237 6.43132 49.6969 5.95057 49.8128 5.43354C49.8514 5.31259 49.9702 5.19165 50.1276 5.19165C50.8315 5.19165 51.574 5.19165 52.278 5.19165C52.4354 5.19165 52.5512 5.31259 52.5898 5.43354C52.866 6.50993 53.3739 7.50771 53.7244 8.58712C53.959 9.26743 54.1937 9.94471 54.4699 10.625C54.8204 11.5019 55.1322 12.3817 55.4857 13.2616C55.6431 13.6607 55.8391 14.0598 55.9549 14.4982C56.0737 14.9397 56.2668 15.3388 56.4242 15.7379C56.7361 16.5361 57.0509 17.3736 57.3628 18.1749C57.5974 18.7312 57.7934 19.3329 58.0281 19.8923C58.1469 20.2097 58.1053 20.2914 57.7548 20.2914C56.9321 20.2914 56.1123 20.2914 55.3282 20.2914C55.055 20.2914 54.9392 20.2097 54.859 19.9316C54.5857 19.091 54.2739 18.2928 53.959 17.4553C53.8432 17.1741 53.8432 17.1741 53.6086 17.1741C52.0047 17.1741 50.4009 17.1741 48.797 17.1741C48.4436 17.1741 48.4851 17.1741 48.2891 17.5732C47.9743 18.3744 47.6624 19.1727 47.3892 19.9709C47.3506 20.1311 47.2704 20.3307 46.9971 20.2914C46.0586 20.2491 45.1586 20.2914 44.2201 20.2914ZM51.1048 9.50629C50.4781 11.1844 49.9316 12.7022 49.3435 14.2987C50.5583 14.2987 51.6899 14.2987 52.8244 14.2987C52.278 12.7022 51.7315 11.1844 51.1048 9.50629Z" fill="#262221"/>
<path d="M73.832 20.2913C72.8133 20.2913 71.8747 20.2913 70.9362 20.2913C70.7015 20.2913 70.6243 20.2097 70.5441 20.0101C70.3511 19.5324 70.1936 19.0516 69.9976 18.6132C69.8402 18.1748 69.5669 17.7726 69.5669 17.2949C69.5669 17.0954 69.4125 17.174 69.2937 17.174C68.1591 17.174 67.0245 17.174 65.89 17.174C65.3435 17.174 64.794 17.174 64.2089 17.174C64.0515 17.174 64.0129 17.2163 63.9743 17.4159C63.7782 18.0931 63.5436 18.7311 63.2704 19.4114C63.1515 19.6926 63.0743 20.0101 62.9555 20.3306C61.9784 20.3306 61.0012 20.3306 59.9438 20.3306C60.1399 19.6926 60.3745 19.0909 60.6091 18.453C60.924 17.694 61.1586 16.9351 61.4705 16.1762C61.7823 15.4173 62.017 14.6191 62.3318 13.8601C62.6437 13.1798 62.8397 12.4633 63.1515 11.7829C63.4664 11.024 63.701 10.2258 64.0129 9.46689C64.3247 8.78659 64.5208 8.06698 64.8356 7.3897C65.1088 6.83033 65.2663 6.23167 65.5009 5.67231C65.6553 5.27319 65.6553 5.27319 66.0088 5.27319C66.6741 5.27319 67.2978 5.27319 67.9631 5.27319C68.1205 5.27319 68.1591 5.35181 68.2363 5.47275C68.5898 5.95047 68.5126 6.59147 68.9016 7.02989C69.0205 7.82811 69.4125 8.50842 69.6858 9.26733C70.0748 10.3861 70.5441 11.4624 70.9362 12.5812C71.3668 13.7785 71.8747 14.9789 72.2668 16.2155C72.4628 16.8958 72.736 17.5338 73.0093 18.1748C73.2439 18.8128 73.4399 19.5324 73.832 20.2913ZM66.8671 9.58481C66.7513 9.70575 66.6741 9.78437 66.6325 9.94462C66.4781 10.4647 66.282 10.9454 66.086 11.4231C65.7741 12.303 65.5395 13.1798 65.1088 13.9811C65.0286 14.1383 65.1474 14.2986 65.3049 14.2986C66.282 14.2986 67.2592 14.2986 68.2363 14.2986C68.4324 14.2986 68.5126 14.1806 68.4324 13.9811C68.2363 13.4217 68.0017 12.8624 67.8087 12.303C67.6512 11.8223 67.4938 11.3445 67.2978 10.8638C67.182 10.4647 67.0632 10.0263 66.8671 9.58481Z" fill="#262221"/>
<path d="M109.545 17.1741C107.864 17.1741 106.18 17.1741 104.498 17.1741C104.106 17.1741 104.148 17.1741 103.991 17.5732C103.679 18.4137 103.403 19.212 103.091 20.0495C102.975 20.3307 102.975 20.3307 102.737 20.3307C101.879 20.3307 101.018 20.3307 100.195 20.3307C100.002 19.9709 100.314 19.6927 100.275 19.4115C100.899 18.2535 101.214 16.9745 101.721 15.7772C102.152 14.7371 102.503 13.6607 102.895 12.5813C103.091 12.0219 103.325 11.5018 103.56 10.9455C103.872 10.1866 104.106 9.42767 104.421 8.66875C104.733 7.90984 104.968 7.15092 105.283 6.392C105.321 6.23175 105.398 6.11081 105.437 5.95056C105.476 5.7117 105.594 5.47283 105.752 5.31259C105.868 5.19164 106.141 5.27328 106.337 5.27328C106.845 5.27328 107.356 5.27328 107.864 5.27328C108.137 5.27328 108.253 5.35189 108.333 5.63308C108.487 6.11081 108.683 6.54923 108.879 7.02998C109.153 7.71028 109.387 8.42687 109.663 9.10717C109.898 9.74514 110.21 10.3861 110.406 11.0634C110.679 11.8616 110.991 12.6206 111.267 13.4218C111.541 14.2593 111.93 15.0969 112.244 15.9374C112.518 16.6963 112.791 17.416 113.064 18.1325C113.299 18.7735 113.533 19.4115 113.768 20.0495C113.81 20.1311 113.768 20.2097 113.768 20.37C112.791 20.37 111.891 20.37 110.952 20.37C110.798 20.37 110.756 20.3307 110.679 20.1704C110.326 19.4901 110.133 18.7735 109.898 18.0932C109.779 17.7334 109.583 17.4946 109.545 17.1741ZM106.845 9.62723C106.26 11.2237 105.71 12.7415 105.125 14.338C106.102 14.338 107.079 14.338 108.018 14.338C108.214 14.338 108.487 14.4589 108.606 14.2593C108.683 14.0991 108.529 13.8602 108.449 13.7C107.902 12.542 107.629 11.3023 107.121 10.1443C107.041 9.9447 107.079 9.74514 106.845 9.62723Z" fill="#262221"/>
<path d="M185.469 20.2916C185.861 19.6506 186.057 19.0913 186.253 18.4926C186.449 17.9332 186.642 17.3739 186.877 16.8145C187.346 15.6988 187.738 14.5378 188.208 13.3797C188.757 12.0615 189.146 10.6646 189.773 9.34629C189.773 8.86856 190.046 8.50876 190.204 8.10964C190.319 7.71053 190.515 7.26909 190.673 6.86998C190.83 6.47087 190.907 6.03245 191.142 5.63334C191.415 5.19189 191.338 5.15259 191.769 5.15259C192.354 5.15259 192.942 5.15259 193.527 5.15259C193.723 5.15259 193.919 5.19189 193.958 5.39145C194.231 6.47087 194.742 7.46865 195.092 8.54806C195.327 9.22837 195.642 9.90565 195.876 10.586C196.188 11.5444 196.58 12.4636 196.931 13.4221C197.204 14.181 197.48 14.8976 197.754 15.6172C198.104 16.4577 198.377 17.2953 198.731 18.1328C198.965 18.6922 199.161 19.2908 199.396 19.8502C199.512 20.1707 199.473 20.2493 199.123 20.2493C198.3 20.2493 197.48 20.2493 196.696 20.2493C196.423 20.2493 196.346 20.1707 196.227 19.8502C195.954 19.0127 195.642 18.2144 195.327 17.3739C195.25 17.135 195.131 17.0957 194.896 17.0957C193.331 17.0957 191.769 17.0957 190.242 17.0957C189.892 17.0957 189.654 17.1743 189.696 17.5734C189.342 18.293 189.069 19.052 188.873 19.8502C188.796 20.1314 188.677 20.21 188.326 20.21C187.346 20.2916 186.488 20.2916 185.469 20.2916ZM192.473 9.50653C191.846 11.1846 191.3 12.7418 190.673 14.3382C191.769 14.3382 192.785 14.3382 193.842 14.3382C193.958 14.3382 194.077 14.3805 194.192 14.2989C193.646 12.7025 193.058 11.1453 192.473 9.50653Z" fill="#262221"/>
<path d="M152.141 11.3445C153.864 11.3445 155.545 11.3445 157.268 11.3445C157.268 12.1428 157.268 12.941 157.268 13.6999C157.268 13.8995 157.149 14.0204 156.914 14.0597C156.718 14.0597 156.484 14.0597 156.288 14.0597C154.918 14.0597 153.511 14.0597 152.103 14.0597C152.103 15.257 152.103 16.4151 152.103 17.6154C153.784 17.6154 155.507 17.6154 157.226 17.6154C157.226 18.5316 157.226 19.4114 157.226 20.3306C154.568 20.3306 151.907 20.3306 149.21 20.3306C149.21 15.3387 149.21 10.3044 149.21 5.27319C151.868 5.27319 154.529 5.27319 157.226 5.27319C157.226 6.15003 157.226 7.02989 157.226 7.94906C155.507 7.94906 153.825 7.94906 152.103 7.94906C152.141 9.02545 152.141 10.1442 152.141 11.3445Z" fill="#262221"/>
<path d="M224 7.90984C222.277 7.90984 220.596 7.90984 218.877 7.90984C218.877 9.02554 218.877 10.1443 218.877 11.3023C220.558 11.3023 222.277 11.3023 224 11.3023C224 12.1035 224 12.8201 224 13.5397C224 13.9389 223.923 14.0205 223.531 14.0205C222.004 14.0205 220.48 14.0205 218.915 14.0205L218.877 14.0598C218.877 14.0598 218.835 14.0991 218.835 14.1384C218.835 15.2571 218.835 16.4152 218.835 17.5732C219.5 17.5732 220.166 17.5732 220.792 17.5732C221.731 17.5732 222.631 17.5732 223.569 17.5732C223.881 17.5732 223.961 17.6941 223.961 17.9753C223.961 18.7312 223.961 19.4901 223.961 20.249C221.261 20.249 218.6 20.249 215.903 20.249C215.903 15.2178 215.903 10.2259 215.903 5.19165C218.6 5.19165 221.261 5.19165 223.923 5.19165C224 6.11082 224 6.95137 224 7.90984Z" fill="#262221"/>
<path d="M124.683 5.23389C127.341 5.23389 129.964 5.23389 132.584 5.23389C132.584 6.11072 132.584 6.99058 132.584 7.90975C130.941 7.90975 129.26 7.90975 127.618 7.90975C127.618 9.06778 127.618 10.1865 127.618 11.3022C129.26 11.3022 130.902 11.3022 132.584 11.3022C132.664 12.2214 132.584 13.1012 132.622 14.0204C130.941 14.0204 129.299 14.0204 127.618 14.0204C127.618 15.2177 127.618 16.3758 127.618 17.5731C129.26 17.5731 130.902 17.5731 132.584 17.5731C132.584 18.4923 132.584 19.3721 132.584 20.2913C129.964 20.2913 127.341 20.2913 124.683 20.2913C124.683 15.257 124.683 10.2651 124.683 5.23389Z" fill="#262221"/>
<path d="M94.3289 11.6621C94.7596 10.4648 95.2675 9.34604 95.6595 8.18801C95.8555 7.66796 96.0486 7.1086 96.3248 6.63087C96.4793 6.31037 96.5595 5.91126 96.7525 5.59076C96.9485 5.23398 96.9099 5.23398 97.2248 5.23398C98.1633 5.23398 99.0632 5.23398 100.118 5.23398C99.8444 5.51215 99.883 5.79032 99.7672 6.0322C99.3365 6.83043 99.0217 7.66796 98.6712 8.4692C98.1633 9.5849 97.694 10.7036 97.1832 11.8223C96.9872 12.2608 96.7941 12.7022 96.5981 13.1406C96.402 13.579 96.2832 14.0598 96.01 14.4589C95.8942 14.6585 95.8555 14.9397 95.8555 15.1785C95.8555 16.775 95.8555 18.4137 95.8555 20.0102C95.8555 20.0918 95.8555 20.2097 95.8555 20.2914C94.8368 20.2914 93.8596 20.2914 92.8409 20.2914C92.7251 20.1311 92.8023 19.9709 92.8023 19.7713C92.8023 18.453 92.7637 17.1348 92.8023 15.7772C92.8409 15.0576 92.6063 14.4196 92.3716 13.8209C91.8637 12.6206 91.2786 11.5018 90.7678 10.3045C90.4173 9.46698 90.0639 8.66876 89.7134 7.82821C89.36 6.99068 88.9709 6.15012 88.6174 5.31259C88.6174 5.31259 88.6174 5.27329 88.656 5.19165C89.6362 5.19165 90.6133 5.19165 91.6291 5.19165C91.7479 5.19165 91.7865 5.23398 91.8637 5.3519C92.1786 5.9929 92.3716 6.70948 92.6865 7.35048C92.9211 7.7889 92.9597 8.30896 93.2716 8.74737C93.4676 8.98624 93.5062 9.34604 93.625 9.66654C93.821 10.3045 94.0557 10.9848 94.3289 11.6621Z" fill="#262221"/>
<path d="M142.364 20.2914C141.307 20.2914 140.33 20.2914 139.314 20.2914C139.314 19.9709 139.314 19.6111 139.314 19.2906C139.314 17.8937 139.314 16.4968 139.314 15.0969C139.314 14.8973 139.272 14.6978 139.195 14.4982C138.726 13.5004 138.295 12.4633 137.864 11.4232C137.475 10.5041 137.045 9.5849 136.653 8.66875C136.299 7.78889 135.871 6.90903 135.479 6.0322C135.402 5.79031 135.245 5.55145 135.245 5.27328C135.322 5.11303 135.479 5.19164 135.637 5.19164C136.418 5.19164 137.199 5.19164 138.022 5.19164C138.295 5.19164 138.414 5.27328 138.491 5.55145C138.764 6.34967 139.118 7.10859 139.43 7.90984C139.664 8.4692 139.822 9.02554 140.056 9.5849C140.33 10.2652 140.603 10.9032 140.876 11.6228C141.268 10.6643 141.66 9.74515 142.011 8.78667C142.403 7.71028 142.911 6.70948 143.225 5.59076C143.303 5.27328 143.418 5.23397 143.733 5.23397C144.672 5.23397 145.572 5.23397 146.588 5.23397C146.392 5.7117 146.237 6.11081 146.041 6.50992C145.649 7.30815 145.299 8.1487 144.945 8.94692C144.71 9.46698 144.399 9.98703 144.203 10.5434C144.007 11.1027 143.695 11.5835 143.499 12.1035C143.184 12.9804 142.756 13.7786 142.403 14.6191C142.325 14.7794 142.364 14.9396 142.364 15.0969C142.364 16.8143 142.364 18.4923 142.364 20.2914Z" fill="#262221"/>
<path d="M108.879 33.0718C108.879 31.4723 108.879 30.0361 108.879 28.5969C109.31 28.5969 109.702 28.5969 110.133 28.5969C110.133 30.7951 110.133 32.9902 110.133 35.1883C110.091 35.1883 110.053 35.2276 110.014 35.2276C109.663 35.1883 109.31 35.3486 108.998 35.149C108.725 34.9495 108.567 34.6683 108.41 34.3901C108.175 34.0303 107.864 33.7098 107.629 33.3923C107.041 32.5518 106.376 31.7928 105.829 30.9553C105.752 30.8737 105.672 30.7951 105.556 30.5955C105.556 32.2313 105.556 33.7491 105.556 35.2669C105.202 35.2669 104.929 35.2669 104.617 35.2669C104.421 35.2669 104.302 35.149 104.302 34.9101C104.302 34.629 104.302 34.3901 104.302 34.1089C104.302 32.5125 104.302 30.916 104.302 29.3558C104.302 29.1986 104.302 29.0777 104.302 28.9174C104.302 28.6786 104.421 28.5969 104.617 28.5576C104.852 28.5576 105.087 28.5576 105.321 28.5576C105.437 28.5576 105.556 28.5969 105.594 28.7179C106.221 29.6763 107.002 30.5562 107.668 31.5147C108.06 31.9924 108.449 32.4731 108.879 33.0718Z" fill="#964734"/>
<path d="M69.3324 35.2279C69.3324 32.9511 69.3324 30.756 69.3324 28.5579C70.3511 28.5579 71.3283 28.4793 72.3441 28.5579C73.4014 28.6395 74.6934 29.3168 75.0439 30.7137C75.1627 31.1158 75.3171 31.4726 75.3171 31.8747C75.2785 32.6337 75.1211 33.3109 74.5746 33.9096C74.3786 34.1515 73.5975 34.9104 73.4014 34.9497C72.8935 35.0283 72.4243 35.3095 71.8362 35.2672C71.0164 35.1886 70.1937 35.2279 69.3324 35.2279ZM70.5858 34.1092C71.0937 34.1092 71.6015 34.1515 72.1094 34.1092C72.6203 34.0699 73.0896 33.7917 73.4786 33.4319C73.8321 33.1114 73.8707 32.5913 74.0281 32.1922C74.1053 31.9534 73.9865 31.6752 73.9093 31.394C73.7133 30.7137 73.4786 30.3569 72.8549 29.9971C72.6589 29.8762 72.5015 29.7159 72.2668 29.7159C71.6788 29.7159 71.1323 29.7159 70.5442 29.7159C70.5858 31.1944 70.5858 32.6337 70.5858 34.1092Z" fill="#964734"/>
<path d="M91.0823 32.7119C91.2783 33.1896 91.6288 33.5494 91.902 33.9485C92.1783 34.3507 92.4901 34.7075 92.7634 35.2275C92.3713 35.2275 91.9822 35.2275 91.5902 35.2275C91.4328 35.2275 91.3556 35.1096 91.2367 35.028C90.8863 34.7075 90.6902 34.3083 90.4556 33.9092C90.2982 33.6311 89.9863 33.4315 89.8705 33.0717C89.8289 32.9508 89.6745 32.8721 89.5171 32.9115C89.1636 32.9115 88.7745 32.9115 88.3825 32.9115C88.3825 33.6704 88.3825 34.39 88.3825 35.1489C87.9518 35.1489 87.5598 35.1489 87.1321 35.1489C87.1321 32.9508 87.1321 30.7556 87.1321 28.4789C87.6014 28.4789 88.0706 28.4789 88.5785 28.4789C89.2052 28.4789 89.8289 28.4396 90.4556 28.4789C91.2783 28.5182 91.9436 28.878 92.2941 29.6762C92.6862 30.4745 92.4901 31.5539 91.9436 31.9923C91.7862 32.1132 91.709 32.2735 91.5516 32.3914C91.4328 32.591 91.2367 32.6333 91.0823 32.7119ZM88.2667 31.832C89.0092 31.832 89.6745 31.832 90.3398 31.832C90.8091 31.832 91.1209 31.5539 91.2783 31.1155C91.3942 30.7556 91.4328 30.3565 91.0437 30.0753C90.8863 29.9544 90.8091 29.7155 90.5744 29.7155C89.8289 29.7155 89.0478 29.7155 88.3053 29.7155C88.3053 29.7972 88.2667 29.8365 88.2667 29.8758C88.2667 30.4745 88.2667 31.1155 88.2667 31.832Z" fill="#964734"/>
<path d="M152.222 35.3877C150.891 35.2668 149.834 34.7497 149.168 33.5494C149.014 33.2319 148.856 32.9114 148.895 32.5516C148.895 32.3913 148.934 32.2311 148.818 32.0739C148.741 31.9922 148.741 31.832 148.818 31.7141C148.856 31.6748 148.895 31.5931 148.895 31.5538C149.014 29.8757 150.03 28.9959 151.322 28.5968C152.807 28.1583 154.256 28.757 155.114 29.915C155.349 30.2748 155.664 30.674 155.584 31.194C155.545 31.3936 155.741 31.5145 155.741 31.7141C155.741 32.9507 155.153 34.4292 153.864 35.0279C153.315 35.1882 152.768 35.3484 152.222 35.3877ZM152.26 29.5552C151.126 29.5552 150.579 30.1146 150.187 31.0338C150.11 31.194 150.226 31.4722 150.11 31.6324C149.991 31.832 149.991 31.9922 150.11 32.1918C150.226 32.352 150.11 32.6332 150.226 32.8721C150.499 33.4315 150.891 33.8699 151.437 34.1087C152.141 34.3899 152.845 34.3506 153.433 33.9485C154.06 33.5101 154.764 32.352 154.295 31.194C153.941 30.1146 153.315 29.5552 152.26 29.5552Z" fill="#964734"/>
<path d="M181.519 29.356C181.361 29.7158 180.972 29.8368 180.892 30.2359C180.542 30.2752 180.384 29.7974 180.034 29.8368C179.484 29.4376 178.861 29.4769 178.273 29.7158C177.881 29.8761 177.607 30.1966 177.295 30.5564C177.061 30.8345 176.981 31.1943 176.903 31.5148C176.826 31.8323 176.746 32.1921 177.022 32.5126C176.942 33.1899 177.491 33.5497 177.881 33.9095C178.234 34.1907 178.703 34.351 179.211 34.2693C179.484 34.23 179.758 34.1907 180.034 34.1091C180.464 33.9488 180.619 33.71 180.619 33.2322C180.619 33.0327 180.619 32.8331 180.619 32.5912C180.072 32.5912 179.523 32.5912 178.976 32.5912C178.976 32.2314 178.976 31.9139 178.976 31.5935C179.876 31.5935 180.776 31.5935 181.754 31.5935C181.754 32.3917 181.715 33.1899 181.754 33.9911C181.754 34.351 181.638 34.5898 181.403 34.6684C180.542 35.1099 179.68 35.509 178.703 35.388C177.999 35.3094 177.334 35.0675 176.788 34.6291C176.315 34.2693 175.965 33.7493 175.807 33.1899C175.573 32.3524 175.496 31.5148 175.807 30.635C176.122 29.7551 176.746 29.0778 177.53 28.6787C178.234 28.3189 179.054 28.2373 179.915 28.4792C180.58 28.718 181.127 28.8783 181.519 29.356Z" fill="#964734"/>
<path d="M113.533 28.5576C115.06 28.5576 116.587 28.5576 118.072 28.5576C118.425 28.5576 118.502 28.6786 118.502 28.996C118.502 29.1563 118.541 29.2772 118.502 29.4375C118.464 29.5554 118.387 29.6763 118.229 29.7156C118.11 29.7156 117.995 29.7156 117.876 29.7156C116.86 29.7156 115.841 29.7156 114.787 29.7156C114.787 30.2357 114.787 30.7134 114.787 31.2728C115.803 31.2728 116.86 31.2728 117.914 31.2728C117.914 31.6749 117.914 32.0317 117.914 32.4338C116.86 32.4338 115.841 32.4338 114.787 32.4338C114.787 32.9902 114.787 33.5495 114.787 34.1512C116.037 34.1512 117.252 34.1512 118.502 34.1512C118.502 34.508 118.502 34.8678 118.502 35.2276C118.502 35.2276 118.502 35.2276 118.464 35.2669C118.464 35.2669 118.425 35.3093 118.387 35.3093C116.783 35.3093 115.137 35.3093 113.495 35.3093C113.533 33.0325 113.533 30.8344 113.533 28.5576Z" fill="#964734"/>
<path d="M186.253 31.2337C187.308 31.2337 188.326 31.2337 189.342 31.2337C189.342 30.3569 189.342 29.477 189.342 28.5579C189.654 28.5579 189.969 28.5579 190.242 28.5579C190.477 28.5579 190.595 28.6788 190.595 28.957C190.595 29.3168 190.595 29.7159 190.595 30.0757C190.595 31.5542 190.595 33.0328 190.595 34.4689C190.595 35.2279 190.515 35.2672 189.811 35.2279C189.654 35.2279 189.538 35.2279 189.342 35.2279C189.342 34.2694 189.342 33.3502 189.342 32.3918C188.288 32.3918 187.308 32.3918 186.253 32.3918C186.253 33.3109 186.253 34.2694 186.253 35.1886C185.861 35.1886 185.508 35.1886 185.157 35.1886C185.157 32.9904 185.157 30.756 185.157 28.5186C185.508 28.5186 185.861 28.5186 186.215 28.5186C186.253 29.4377 186.253 30.3146 186.253 31.2337Z" fill="#964734"/>
<path d="M97.0287 31.7535C97.5752 31.1156 98.0831 30.6741 98.5137 30.1148C98.9058 29.5554 99.4523 29.117 99.9215 28.6393C100.002 28.5576 100.079 28.5576 100.156 28.5576C100.587 28.5576 101.018 28.5576 101.525 28.5576C100.625 29.4768 99.8443 30.275 99.0216 31.1156C98.787 31.3544 98.7484 31.5147 98.983 31.7535C99.3364 32.1526 99.6483 32.6334 99.9602 33.0325C100.471 33.7098 100.979 34.3508 101.487 35.0281C101.525 35.0674 101.487 35.1097 101.487 35.2276C101.095 35.2276 100.664 35.2276 100.275 35.2276C100.118 35.2276 100.04 35.1097 99.9602 34.9888C99.6483 34.5503 99.3364 34.1512 99.0216 33.7491C98.787 33.4316 98.5523 33.0718 98.3177 32.7906C98.1632 32.6334 98.2019 32.3915 98.0058 32.3129C97.9672 32.2313 97.9286 32.2736 97.887 32.3129C97.6138 32.5911 97.2247 32.833 97.0673 33.1897C96.9099 33.5495 97.0287 33.991 97.0287 34.3901C97.0287 34.6683 97.0287 34.9495 97.0287 35.2276C96.598 35.2276 96.206 35.2276 95.8139 35.2276C95.8139 32.9902 95.8139 30.7951 95.8139 28.5576C96.206 28.5576 96.598 28.5576 97.0287 28.5576C97.0287 29.5977 97.0287 30.6348 97.0287 31.7535Z" fill="#964734"/>
<path d="M84.3552 35.2276C83.8443 35.2276 83.4938 35.2276 83.179 35.2276C82.9859 35.2276 82.8285 35.1097 82.8285 34.9495C82.8285 34.7076 82.6711 34.5503 82.5939 34.3508C82.5167 34.1089 82.4751 33.7914 82.3206 33.7098C82.1246 33.5919 81.8098 33.6705 81.5752 33.6705C80.8712 33.6705 80.1287 33.6705 79.4248 33.6705C79.2674 33.6705 79.1902 33.7098 79.1902 33.9093C79.1516 34.3085 78.7981 34.629 78.7209 35.0674C78.7209 35.1883 78.5635 35.2669 78.409 35.2669C78.0942 35.2276 77.7823 35.2669 77.3517 35.2669C77.7437 34.4294 78.1328 33.6312 78.4476 32.833C78.7595 31.9924 79.1902 31.1549 79.4634 30.275C79.5436 30.0361 79.6981 29.7973 79.8169 29.5554C79.8941 29.4375 79.9713 29.2772 79.9713 29.1986C79.9713 28.9567 80.1287 28.7572 80.2089 28.5576C80.5594 28.5576 80.9514 28.5576 81.3019 28.5576C81.3821 28.5576 81.3821 28.6393 81.4207 28.7179C81.8098 29.5554 82.2018 30.4353 82.5553 31.3151C82.7097 31.7142 82.9058 32.074 83.0632 32.4338C83.3364 33.0325 83.5711 33.6312 83.8443 34.2298C84.0017 34.5503 84.0403 34.8678 84.3552 35.2276ZM80.794 29.9545C80.4436 30.8344 80.0901 31.6749 79.7367 32.5125C80.4436 32.5125 81.1475 32.5125 81.89 32.5125C81.5365 31.6326 81.2247 30.7951 80.794 29.9545Z" fill="#964734"/>
<path d="M121.164 34.1514C121.437 33.8702 121.671 33.6313 121.906 33.3925C122.375 33.6707 122.806 33.9912 123.353 34.1514C123.86 34.3086 124.291 34.1907 124.722 34.0698C125.075 33.9488 125.152 33.3108 124.918 32.9904C124.683 32.6729 124.33 32.5912 123.979 32.5126C123.391 32.3917 122.845 32.2738 122.337 31.9533C121.671 31.5935 121.437 31.0734 121.437 30.3568C121.437 29.6765 121.749 29.1988 122.337 28.839C123.549 28.0801 124.645 28.4399 125.74 29.0385C125.856 29.0778 125.895 29.1988 125.975 29.2774C126.052 29.356 126.052 29.4377 125.975 29.5163C125.74 29.7158 125.74 30.0756 125.387 30.1966C124.879 29.8368 124.291 29.5163 123.587 29.5163C123.275 29.5163 123.041 29.6765 122.845 29.8761C122.649 30.0756 122.649 30.514 122.883 30.7559C123.157 31.0734 123.587 31.1157 123.941 31.2337C124.448 31.3546 124.918 31.5542 125.387 31.7537C126.052 32.0742 126.483 32.9903 126.326 33.6313C126.21 34.0305 126.091 34.4689 125.74 34.7077C125.426 34.9496 125.114 35.2278 124.645 35.2278C124.33 35.2278 123.979 35.388 123.667 35.3487C123.353 35.2671 123.041 35.2671 122.767 35.1492C122.533 35.0675 122.257 34.9889 122.064 34.868C121.749 34.6684 121.398 34.5082 121.164 34.1514Z" fill="#964734"/>
<path d="M131.645 28.3977C132.194 28.44 132.898 28.6396 133.564 29.078C133.757 29.2383 133.718 29.3562 133.679 29.4771C133.564 29.6374 133.445 29.7976 133.329 29.9972C133.172 30.1967 133.133 30.1967 132.818 30.0365C132.31 29.7553 131.764 29.4771 131.137 29.5557C130.629 29.5981 130.314 29.9972 130.356 30.4749C130.395 30.7561 130.591 30.874 130.825 30.995C131.256 31.2338 131.725 31.2731 132.194 31.3941C132.818 31.5936 133.406 31.8748 133.798 32.4342C134.033 32.8333 134.11 33.311 133.953 33.7918C133.718 34.6293 133.172 35.0284 132.349 35.2673C131.372 35.5878 130.041 34.9891 129.299 34.6293C129.18 34.59 129.141 34.469 129.064 34.3904C129.025 34.3511 128.987 34.2695 128.987 34.2302C129.141 33.9097 129.337 33.6315 129.61 33.432L129.691 33.5106C129.964 33.5499 130.121 33.8311 130.356 33.949C130.825 34.1516 131.256 34.3088 131.764 34.3088C131.998 34.3088 132.153 34.0306 132.387 34.1516C132.78 33.9097 132.857 33.3926 132.545 33.0328C132.194 32.6337 131.684 32.5914 131.256 32.4735C130.784 32.3132 130.356 32.1923 129.887 31.8748C129.18 31.3941 128.987 30.7954 129.221 29.9972C129.337 29.6374 129.417 29.3169 129.729 29.078C130.198 28.5973 130.825 28.3977 131.645 28.3977Z" fill="#964734"/>
<path d="M146.51 29.6763C145.845 29.6763 145.18 29.6763 144.476 29.6763C144.437 30.5955 144.476 31.5147 144.437 32.4338C144.437 33.35 144.437 34.2691 144.437 35.2276C144.045 35.2276 143.653 35.2276 143.225 35.2276C143.184 34.3508 143.225 33.4316 143.184 32.5125C143.184 31.5933 143.184 30.6741 143.184 29.7156C142.521 29.7156 141.856 29.7156 141.111 29.7156C141.072 29.3165 141.111 28.9567 141.072 28.5576C142.911 28.5576 144.672 28.5576 146.472 28.5576C146.51 28.9567 146.51 29.3165 146.51 29.6763Z" fill="#964734"/>
<path d="M198.808 28.5579C198.808 28.9177 198.808 29.2775 198.808 29.6373C198.184 29.6373 197.557 29.6373 196.892 29.6373C196.892 31.4726 196.892 33.3109 196.892 35.1886C196.461 35.1886 196.069 35.1886 195.642 35.1886C195.642 33.3926 195.642 31.5542 195.642 29.6766C194.935 29.6766 194.273 29.6766 193.527 29.6766C193.488 29.2775 193.527 28.9177 193.488 28.5186C195.25 28.5579 197.008 28.5579 198.808 28.5579Z" fill="#964734"/>
<path d="M163.565 28.5576C163.918 28.5576 164.269 28.5576 164.622 28.5576C164.622 30.396 164.622 32.192 164.622 34.0696C165.795 34.0696 166.93 34.0696 168.103 34.0696C168.103 34.4687 168.103 34.8285 168.103 35.1883C166.615 35.1883 165.091 35.1883 163.565 35.1883C163.565 33.0325 163.565 30.8344 163.565 28.5576Z" fill="#964734"/>
<path d="M171.192 28.5576C171.584 28.5576 171.934 28.5576 172.288 28.5576C172.288 30.7951 172.288 32.9902 172.288 35.2276C171.934 35.2276 171.584 35.2276 171.23 35.2276C171.115 34.8678 171.192 34.5503 171.192 34.1905C171.192 32.4731 171.192 30.7951 171.192 29.0777C171.192 28.8781 171.192 28.7179 171.192 28.5576Z" fill="#964734"/>
</svg>
